<svg version="1.1" xmlns="http://www.w3.org/2000/svg" viewBox="0 0 776.5 473.625" width="776.5" height="473.625">
  <!-- svg-source:excalidraw -->
  
  <defs>
    <style class="style-fonts">
      @font-face {
        font-family: "Virgil";
        src: url("https://excalidraw.com/Virgil.woff2");
      }
      @font-face {
        font-family: "Cascadia";
        src: url("https://excalidraw.com/Cascadia.woff2");
      }
      @font-face {
        font-family: "Assistant";
        src: url("https://excalidraw.com/Assistant-Regular.woff2");
      }
    </style>
    
  </defs>
  <rect x="0" y="0" width="776.5" height="473.625" fill="#ffffff"></rect><g stroke-linecap="round" transform="translate(10 44.25) rotate(0 176.5 90)"><path d="M7.86 8.16 C7.86 8.16, 7.86 8.16, 7.86 8.16 M7.86 8.16 C7.86 8.16, 7.86 8.16, 7.86 8.16 M1.43 27.75 C7.61 22.38, 12.03 14.21, 24.4 1.33 M1.43 27.75 C6.17 21.67, 10.89 15.64, 24.4 1.33 M0.91 40.54 C12.07 27.86, 18.72 19.24, 36.34 -0.21 M0.91 40.54 C14.21 25.19, 27.53 10.03, 36.34 -0.21 M1.04 52.58 C15.79 36.33, 30.12 22.47, 46.97 -0.25 M1.04 52.58 C13.7 37.59, 27.68 21.49, 46.97 -0.25 M1.18 64.62 C18.52 45.04, 34.63 24.82, 57.6 -0.28 M1.18 64.62 C19.25 43.91, 37.58 21.87, 57.6 -0.28 M1.31 76.67 C26.28 44.54, 53.95 14.11, 67.57 0.44 M1.31 76.67 C22.83 50.82, 45.04 26.38, 67.57 0.44 M1.44 88.71 C31.18 54.76, 59.32 25.63, 78.2 0.41 M1.44 88.71 C20.81 63.29, 41.87 39.31, 78.2 0.41 M0.92 101.5 C23.15 77.88, 44.56 51.94, 88.83 0.37 M0.92 101.5 C26.15 74.07, 52.02 44.5, 88.83 0.37 M1.05 113.54 C22.09 88.59, 40.67 66.39, 99.46 0.34 M1.05 113.54 C27.11 81.49, 56.26 49.26, 99.46 0.34 M1.19 125.58 C34.01 85.55, 69.24 45.3, 110.09 0.3 M1.19 125.58 C41.95 79.67, 81.25 32.74, 110.09 0.3 M1.32 137.62 C36.62 101.72, 66.24 63.99, 120.72 0.27 M1.32 137.62 C39.22 92.41, 78.57 47.8, 120.72 0.27 M1.45 149.67 C45.94 94.32, 93.68 43.06, 131.35 0.23 M1.45 149.67 C29.85 118.4, 56.39 86.96, 131.35 0.23 M2.9 160.2 C43.05 114.17, 84.61 66.94, 141.98 0.2 M2.9 160.2 C54.07 101.51, 104.8 43.56, 141.98 0.2 M5.66 169.22 C48.13 119.66, 90.03 69.71, 152.61 0.16 M5.66 169.22 C46.38 121.72, 89.87 73.36, 152.61 0.16 M11.69 174.47 C61.31 118.77, 109.44 63.36, 163.24 0.13 M11.69 174.47 C49.19 130.77, 86.7 87.16, 163.24 0.13 M19.04 178.21 C53.89 135.95, 90.64 94.78, 173.87 0.09 M19.04 178.21 C69.92 121.99, 118.74 65.04, 173.87 0.09 M28.36 179.68 C80.64 119.57, 133.72 56.29, 184.5 0.06 M28.36 179.68 C91.87 109.25, 153.23 37.74, 184.5 0.06 M38.34 180.4 C92.47 118.9, 144.59 57.49, 195.13 0.03 M38.34 180.4 C79.65 133.63, 122.14 85.56, 195.13 0.03 M48.97 180.37 C81.37 142.84, 112.65 107.92, 205.76 -0.01 M48.97 180.37 C108.77 113.09, 166.94 44.88, 205.76 -0.01 M59.6 180.33 C118.15 112.53, 178.91 42.72, 216.39 -0.04 M59.6 180.33 C111.91 122.34, 161.46 65.01, 216.39 -0.04 M70.23 180.3 C116.34 125.86, 165.95 70.69, 227.02 -0.08 M70.23 180.3 C112.27 131.9, 153.88 83.23, 227.02 -0.08 M80.86 180.26 C124.61 127.84, 170.12 73.99, 237.65 -0.11 M80.86 180.26 C136.15 119.3, 188.76 58.31, 237.65 -0.11 M91.49 180.23 C143.32 119.36, 197.47 57.7, 248.28 -0.15 M91.49 180.23 C140.64 123.57, 190.3 68.14, 248.28 -0.15 M102.12 180.19 C144.45 135.8, 184.39 89.23, 258.91 -0.18 M102.12 180.19 C163.62 107.77, 225.87 37.32, 258.91 -0.18 M112.75 180.16 C160.77 125.41, 208.36 69.53, 269.54 -0.22 M112.75 180.16 C157.27 126.42, 202.78 74.36, 269.54 -0.22 M123.38 180.13 C162.57 134.5, 201.97 89.52, 280.17 -0.25 M123.38 180.13 C157.38 142.92, 190.86 104.74, 280.17 -0.25 M134.01 180.09 C179.98 125.45, 228.11 68.06, 290.8 -0.28 M134.01 180.09 C183.71 124.15, 233.66 66.43, 290.8 -0.28 M144.64 180.06 C189.09 127.9, 234.62 75.31, 300.78 0.44 M144.64 180.06 C197.47 117.54, 252.89 53.73, 300.78 0.44 M155.27 180.02 C214.62 112.57, 272.43 45.11, 311.41 0.4 M155.27 180.02 C194.15 134.28, 232.88 88.85, 311.41 0.4 M165.9 179.99 C219.02 118.23, 272.61 58.12, 322.04 0.37 M165.9 179.99 C199.03 140.88, 231.04 102.97, 322.04 0.37 M176.53 179.95 C209.93 139.32, 248.61 98.81, 331.36 1.84 M176.53 179.95 C222.69 128.19, 266.31 75.93, 331.36 1.84 M187.16 179.92 C220.87 137.68, 257.08 96.69, 340.02 4.07 M187.16 179.92 C223.71 136.48, 261.46 93.93, 340.02 4.07 M197.79 179.88 C246.73 126.29, 296.59 68.38, 346.06 9.32 M197.79 179.88 C254.29 115.64, 308.96 51.83, 346.06 9.32 M208.42 179.85 C263.64 117.4, 317.43 57.05, 350.13 16.83 M208.42 179.85 C254.41 124.46, 301.91 70.99, 350.13 16.83 M219.05 179.81 C247.9 149.44, 275.04 119.01, 352.88 25.85 M219.05 179.81 C270.59 123.17, 322 64.25, 352.88 25.85 M229.68 179.78 C254.69 147.87, 282.56 118.63, 353.67 37.14 M229.68 179.78 C279.77 122.85, 329.65 66.56, 353.67 37.14 M240.31 179.75 C277.85 137.39, 315.15 97.79, 353.81 49.18 M240.31 179.75 C277.65 136.13, 315.58 92.86, 353.81 49.18 M250.94 179.71 C290.75 135.7, 328.15 89.22, 353.94 61.22 M250.94 179.71 C273.73 156.08, 295.9 130.11, 353.94 61.22 M261.57 179.68 C283.89 153.77, 308 129.66, 353.42 74.02 M261.57 179.68 C297.75 138.04, 332.59 96.67, 353.42 74.02 M271.54 180.4 C296.03 150.8, 321.79 122.79, 353.55 86.06 M271.54 180.4 C302.59 145.64, 333.22 110.26, 353.55 86.06 M282.17 180.36 C299.12 159.29, 318.03 136.7, 353.68 98.1 M282.17 180.36 C299.15 159.06, 318.18 138.23, 353.68 98.1 M292.8 180.33 C310.43 162.3, 323.36 145.46, 353.82 110.14 M292.8 180.33 C312.59 156.96, 334.27 131.68, 353.82 110.14 M303.43 180.29 C319.56 162.24, 335.56 139.38, 353.95 122.18 M303.43 180.29 C323.5 159.46, 342.51 137.52, 353.95 122.18 M314.06 180.26 C325.97 166.56, 337.41 154.44, 353.43 134.98 M314.06 180.26 C329.15 162.46, 343.7 145.19, 353.43 134.98 M324.69 180.22 C335.29 169.14, 345.83 155.73, 353.56 147.02 M324.69 180.22 C333.36 168.79, 343.92 157.76, 353.56 147.02 M337.95 177.17 C340.72 173.54, 346.04 166.68, 350.41 162.83 M337.95 177.17 C340.7 173.83, 344.68 170.68, 350.41 162.83" stroke="#ffc9c9" stroke-width="1" fill="none"></path><path d="M32 0 C134.77 -1.75, 239.12 0.3, 321 0 M32 0 C120.59 0.9, 208.38 1.55, 321 0 M321 0 C342.86 0.94, 354.24 9.99, 353 32 M321 0 C343.19 -1.07, 354 9.14, 353 32 M353 32 C351.79 70.86, 354.93 111.86, 353 148 M353 32 C353.2 76.51, 352.67 121.13, 353 148 M353 148 C353.53 168.48, 342.3 179.32, 321 180 M353 148 C353.8 169.56, 341.03 178.16, 321 180 M321 180 C260.45 179.53, 201.37 179.57, 32 180 M321 180 C222.68 182.24, 123.17 181.4, 32 180 M32 180 C9.47 179.09, -1.8 167.66, 0 148 M32 180 C10.29 177.88, 1.21 169.3, 0 148 M0 148 C0.4 100.83, -1.1 55.77, 0 32 M0 148 C-0.39 102.08, -0.38 56.15, 0 32 M0 32 C-1.23 12.57, 12.63 -0.16, 32 0 M0 32 C-0.68 10.31, 8.38 -2.07, 32 0" stroke="#1971c2" stroke-width="2" fill="none"></path></g><g transform="translate(54.4500732421875 70.55000000000001) rotate(0 134.3359375 69)"><text x="134.3359375" y="18.400390625" font-family="Helvetica, Segoe UI Emoji" font-size="20px" fill="#1971c2" text-anchor="middle" style="white-space: pre;" direction="ltr" dominant-baseline="alphabetic">Utilisation de scanners </text><text x="134.3359375" y="41.400390625" font-family="Helvetica, Segoe UI Emoji" font-size="20px" fill="#1971c2" text-anchor="middle" style="white-space: pre;" direction="ltr" dominant-baseline="alphabetic">de vulnérabilités </text><text x="134.3359375" y="64.400390625" font-family="Helvetica, Segoe UI Emoji" font-size="20px" fill="#1971c2" text-anchor="middle" style="white-space: pre;" direction="ltr" dominant-baseline="alphabetic">tels que Nessus, OpenVAS ou</text><text x="134.3359375" y="87.400390625" font-family="Helvetica, Segoe UI Emoji" font-size="20px" fill="#1971c2" text-anchor="middle" style="white-space: pre;" direction="ltr" dominant-baseline="alphabetic"> Qualys pour</text><text x="134.3359375" y="110.400390625" font-family="Helvetica, Segoe UI Emoji" font-size="20px" fill="#1971c2" text-anchor="middle" style="white-space: pre;" direction="ltr" dominant-baseline="alphabetic"> identifier automatiquement </text><text x="134.3359375" y="133.400390625" font-family="Helvetica, Segoe UI Emoji" font-size="20px" fill="#1971c2" text-anchor="middle" style="white-space: pre;" direction="ltr" dominant-baseline="alphabetic">les faiblesses de sécurité.</text></g><g transform="translate(95.38671875 15.75) rotate(0 79.61328125 9.200000000000003)"><text x="79.61328125" y="14.720312499999999" font-family="Helvetica, Segoe UI Emoji" font-size="16px" fill="#1971c2" text-anchor="middle" style="white-space: pre;" direction="ltr" dominant-baseline="alphabetic">Scanning automatique</text></g><g stroke-linecap="round" transform="translate(406.5 35.5) rotate(0 180 90)"><path d="M7.86 8.16 C7.86 8.16, 7.86 8.16, 7.86 8.16 M7.86 8.16 C7.86 8.16, 7.86 8.16, 7.86 8.16 M2.75 26.24 C10.22 20.11, 16.72 10.83, 21.12 5.11 M2.75 26.24 C9.46 18.56, 16.32 10.16, 21.12 5.11 M2.88 38.28 C14.27 24.55, 25.72 12.49, 34.37 2.05 M2.88 38.28 C12.45 26.21, 24.72 13.64, 34.37 2.05 M2.36 51.07 C18.9 33, 35.37 16.02, 45 2.02 M2.36 51.07 C12.07 40.73, 20.8 30.14, 45 2.02 M2.49 63.11 C16.46 47.71, 30.36 33.44, 55.63 1.98 M2.49 63.11 C20.35 43.57, 36.05 24.68, 55.63 1.98 M2.62 75.16 C18.92 58.03, 37 36.49, 66.26 1.95 M2.62 75.16 C23.11 51.8, 44.19 28.2, 66.26 1.95 M2.76 87.2 C19.63 68.07, 35 53.2, 76.89 1.91 M2.76 87.2 C22.28 63.46, 43.5 39.76, 76.89 1.91 M2.89 99.24 C24.58 72.95, 50.21 47.82, 87.52 1.88 M2.89 99.24 C28.13 67.82, 55.29 37.97, 87.52 1.88 M2.37 112.03 C38.56 69.16, 77.39 27.92, 98.15 1.85 M2.37 112.03 C26.4 86.29, 48.86 58.33, 98.15 1.85 M2.5 124.07 C34.93 82.93, 68.91 47.11, 108.78 1.81 M2.5 124.07 C38.86 84.13, 73.62 42.68, 108.78 1.81 M2.63 136.11 C37.28 97.83, 69.64 61.72, 119.41 1.78 M2.63 136.11 C29.88 103.79, 56.88 73.05, 119.41 1.78 M2.77 148.16 C47.51 96.42, 91.36 45.48, 130.04 1.74 M2.77 148.16 C30.22 116.2, 56.83 84.63, 130.04 1.74 M4.21 158.69 C44.85 108.08, 89.65 59.68, 140.67 1.71 M4.21 158.69 C40.14 119.02, 74.49 77.73, 140.67 1.71 M6.31 168.46 C53.33 113.81, 99.51 59.86, 150.65 2.43 M6.31 168.46 C52.67 116.82, 98.9 63.38, 150.65 2.43 M11.69 174.47 C53.49 124.15, 95.71 75.77, 161.28 2.39 M11.69 174.47 C67.03 110.18, 121.15 48.17, 161.28 2.39 M17.73 179.72 C60.7 131.9, 103.78 79.64, 171.91 2.36 M17.73 179.72 C64.77 126.2, 110.72 72.16, 171.91 2.36 M27.05 181.19 C68.34 131.3, 111.58 83.44, 182.54 2.32 M27.05 181.19 C87.61 109.4, 149.22 39.98, 182.54 2.32 M35.71 183.42 C75.71 136.1, 117.13 87.42, 193.17 2.29 M35.71 183.42 C91.15 118.91, 146.84 56.03, 193.17 2.29 M46.34 183.39 C103.94 118.65, 160.14 53.78, 203.8 2.26 M46.34 183.39 C79.07 145.48, 110.27 110.27, 203.8 2.26 M56.97 183.35 C118.66 115.22, 179.43 45.18, 214.43 2.22 M56.97 183.35 C114.03 119.51, 168.38 55.54, 214.43 2.22 M67.6 183.32 C117.8 123.91, 170.32 63.27, 225.06 2.19 M67.6 183.32 C107.8 136.71, 146.57 92.68, 225.06 2.19 M78.23 183.28 C138.23 113.4, 196.67 47.85, 235.69 2.15 M78.23 183.28 C122.14 132.27, 165.94 82.06, 235.69 2.15 M88.86 183.25 C141.55 126.09, 190.46 66.33, 246.32 2.12 M88.86 183.25 C119.16 145.59, 152.62 108.85, 246.32 2.12 M99.49 183.21 C131.37 142.6, 168.45 100.6, 256.95 2.08 M99.49 183.21 C139.37 139.59, 179.02 93.93, 256.95 2.08 M110.12 183.18 C143.53 146.85, 179.21 105.96, 267.58 2.05 M110.12 183.18 C165.94 120.57, 221.35 56.04, 267.58 2.05 M120.75 183.14 C175.16 120.44, 228.87 56.13, 278.21 2.01 M120.75 183.14 C164.15 134.38, 206.53 85.61, 278.21 2.01 M131.38 183.11 C163.59 143.2, 198.7 103.84, 288.84 1.98 M131.38 183.11 C193.78 113.34, 254.7 42.57, 288.84 1.98 M142.01 183.08 C175.23 146.44, 207.83 107.81, 299.47 1.94 M142.01 183.08 C183.25 134.39, 223.97 86.94, 299.47 1.94 M152.64 183.04 C201.64 129.51, 248.62 74.3, 310.1 1.91 M152.64 183.04 C187.17 143.94, 218.95 104.68, 310.1 1.91 M163.27 183.01 C212.11 124.51, 262.34 69.92, 320.73 1.88 M163.27 183.01 C204.91 135.97, 243.01 90.75, 320.73 1.88 M173.9 182.97 C227.76 119.18, 284.25 56.73, 330.7 2.6 M173.9 182.97 C224.26 124.5, 275.58 64.75, 330.7 2.6 M184.53 182.94 C216.88 145.46, 246.8 109.54, 340.02 4.07 M184.53 182.94 C244.67 113.74, 304.94 45, 340.02 4.07 M194.51 183.66 C229.67 146.38, 261.16 106.6, 349.34 5.55 M194.51 183.66 C234.65 136.23, 274.24 90.95, 349.34 5.55 M205.14 183.62 C242.79 136.09, 284.74 89.71, 354.72 11.55 M205.14 183.62 C250.71 131.31, 296.18 79.04, 354.72 11.55 M215.77 183.59 C254.54 140.44, 294.94 95.14, 358.79 19.06 M215.77 183.59 C263.9 127.81, 310.44 73.64, 358.79 19.06 M226.4 183.55 C270.49 131.59, 315.38 80.18, 360.23 29.59 M226.4 183.55 C278.23 124.2, 328.95 65.76, 360.23 29.59 M237.03 183.52 C268.38 150.38, 296.57 113.8, 364.96 36.35 M237.03 183.52 C274.62 142.95, 310.46 100.69, 364.96 36.35 M247.66 183.48 C277.94 149.72, 306.53 116.46, 365.09 48.39 M247.66 183.48 C278.7 147.86, 308.88 111.62, 365.09 48.39 M258.29 183.45 C301.37 136.39, 340.66 91, 365.22 60.43 M258.29 183.45 C286.59 152.31, 315.48 119.2, 365.22 60.43 M268.92 183.42 C303.84 145.98, 335.68 104.54, 364.7 73.23 M268.92 183.42 C302.03 145.08, 334.77 106.45, 364.7 73.23 M279.55 183.38 C303.95 153.76, 329.82 127.07, 364.84 85.27 M279.55 183.38 C299.47 160.54, 318.29 137.88, 364.84 85.27 M290.18 183.35 C317.88 152.6, 345.47 122.38, 364.97 97.31 M290.18 183.35 C313.42 157.45, 336.63 130.84, 364.97 97.31 M300.81 183.31 C323.39 157.01, 341.75 135.06, 365.1 109.35 M300.81 183.31 C322.5 157.56, 346.02 131.76, 365.1 109.35 M311.44 183.28 C327.97 164.68, 338.92 147.84, 365.23 121.39 M311.44 183.28 C329.97 160.94, 348.93 139.43, 365.23 121.39 M322.07 183.24 C337.07 166.88, 352.52 149.49, 364.71 134.19 M322.07 183.24 C338.08 163.79, 356.31 143.7, 364.71 134.19 M332.04 183.96 C339.52 172.52, 350.57 162.69, 361.56 150 M332.04 183.96 C342.95 170.63, 352.34 160.05, 361.56 150" stroke="#ffc9c9" stroke-width="1" fill="none"></path><path d="M32 0 C115.35 -1.42, 197.14 -0.23, 328 0 M32 0 C135.9 0.96, 240.54 0.74, 328 0 M328 0 C349.68 -1.95, 360.88 9.62, 360 32 M328 0 C349.28 1.45, 361.56 10.67, 360 32 M360 32 C360.67 65.18, 360.12 95.98, 360 148 M360 32 C359.52 69.8, 359.66 107.61, 360 148 M360 148 C360.19 170.95, 349.94 179.71, 328 180 M360 148 C359.06 171, 351 180.79, 328 180 M328 180 C244.44 179.29, 162.75 178.91, 32 180 M328 180 C234.69 178.13, 142.06 178.52, 32 180 M32 180 C12.14 178.58, 1.33 169.02, 0 148 M32 180 C9.93 178.23, 1.72 168.11, 0 148 M0 148 C-0.81 111.38, 0.6 78, 0 32 M0 148 C0.7 115.27, 0.76 82.83, 0 32 M0 32 C-0.73 11.9, 9.74 -1.73, 32 0 M0 32 C-1.87 10.54, 8.47 -0.36, 32 0" stroke="#1971c2" stroke-width="2" fill="none"></path></g><g transform="translate(445.4344482421875 67.79999999999995) rotate(0 142.8515625 69)"><text x="142.8515625" y="18.400390625" font-family="Helvetica, Segoe UI Emoji" font-size="20px" fill="#1971c2" text-anchor="middle" style="white-space: pre;" direction="ltr" dominant-baseline="alphabetic">Examen manuel des systèmes</text><text x="142.8515625" y="41.400390625" font-family="Helvetica, Segoe UI Emoji" font-size="20px" fill="#1971c2" text-anchor="middle" style="white-space: pre;" direction="ltr" dominant-baseline="alphabetic"> par des experts</text><text x="142.8515625" y="64.400390625" font-family="Helvetica, Segoe UI Emoji" font-size="20px" fill="#1971c2" text-anchor="middle" style="white-space: pre;" direction="ltr" dominant-baseline="alphabetic"> pour identifier les vulnérabilités </text><text x="142.8515625" y="87.400390625" font-family="Helvetica, Segoe UI Emoji" font-size="20px" fill="#1971c2" text-anchor="middle" style="white-space: pre;" direction="ltr" dominant-baseline="alphabetic">complexes qui pourraient </text><text x="142.8515625" y="110.400390625" font-family="Helvetica, Segoe UI Emoji" font-size="20px" fill="#1971c2" text-anchor="middle" style="white-space: pre;" direction="ltr" dominant-baseline="alphabetic">être manquées par </text><text x="142.8515625" y="133.400390625" font-family="Helvetica, Segoe UI Emoji" font-size="20px" fill="#1971c2" text-anchor="middle" style="white-space: pre;" direction="ltr" dominant-baseline="alphabetic">les outils automatisés.</text></g><g transform="translate(509.3515625 10) rotate(0 63.1484375 9.200000000000003)"><text x="63.1484375" y="14.720312499999999" font-family="Helvetica, Segoe UI Emoji" font-size="16px" fill="#1971c2" text-anchor="middle" style="white-space: pre;" direction="ltr" dominant-baseline="alphabetic">Analyse manuelle</text></g><g stroke-linecap="round" transform="translate(216.25 283.625) rotate(0 176.5 90)"><path d="M7.86 8.16 C7.86 8.16, 7.86 8.16, 7.86 8.16 M7.86 8.16 C7.86 8.16, 7.86 8.16, 7.86 8.16 M1.43 27.75 C6.67 20.64, 17.02 9.87, 24.4 1.33 M1.43 27.75 C6.04 22.08, 10.01 16.49, 24.4 1.33 M0.91 40.54 C12.54 27.45, 22.01 15.52, 36.34 -0.21 M0.91 40.54 C10.54 31.45, 19.06 21.3, 36.34 -0.21 M1.04 52.58 C12.86 37.81, 25.43 22.99, 46.97 -0.25 M1.04 52.58 C16.37 35.36, 33.12 17.95, 46.97 -0.25 M1.18 64.62 C17.75 47.86, 35.38 25.63, 57.6 -0.28 M1.18 64.62 C21.93 42.42, 39.84 19.14, 57.6 -0.28 M1.31 76.67 C21.37 53.08, 39.61 32.24, 67.57 0.44 M1.31 76.67 C13.64 61.9, 27.08 47.23, 67.57 0.44 M1.44 88.71 C30.78 55.35, 63.4 17.15, 78.2 0.41 M1.44 88.71 C26.77 59.02, 52.1 29.49, 78.2 0.41 M0.92 101.5 C22.28 77.17, 45.25 51.17, 88.83 0.37 M0.92 101.5 C28.7 69.73, 56.94 38.87, 88.83 0.37 M1.05 113.54 C22.59 87.13, 47.99 62.3, 99.46 0.34 M1.05 113.54 C30.7 78.53, 61.02 44.66, 99.46 0.34 M1.19 125.58 C25.47 98.23, 48.43 72.57, 110.09 0.3 M1.19 125.58 C28.03 93.2, 57.09 61.3, 110.09 0.3 M1.32 137.62 C38.74 92.68, 77.55 50.62, 120.72 0.27 M1.32 137.62 C41.85 90.92, 83.24 44.33, 120.72 0.27 M1.45 149.67 C40.77 105.98, 78.3 62.32, 131.35 0.23 M1.45 149.67 C29.56 117.02, 57.92 83.58, 131.35 0.23 M2.9 160.2 C41.46 115.09, 81.92 68.67, 141.98 0.2 M2.9 160.2 C36.73 120.82, 70.29 82.86, 141.98 0.2 M5.66 169.22 C61.28 102.44, 118.66 38.31, 152.61 0.16 M5.66 169.22 C45.75 123.93, 85.7 76.84, 152.61 0.16 M11.69 174.47 C50.16 130.26, 87.96 84.89, 163.24 0.13 M11.69 174.47 C63.62 114.85, 117 53.16, 163.24 0.13 M19.04 178.21 C51.28 141.44, 84.3 101.72, 173.87 0.09 M19.04 178.21 C65.79 124.7, 110.7 73.61, 173.87 0.09 M28.36 179.68 C69.98 129.36, 112.4 78.67, 184.5 0.06 M28.36 179.68 C84.07 116.55, 138.21 53.09, 184.5 0.06 M38.34 180.4 C83.29 130.16, 127.33 76.39, 195.13 0.03 M38.34 180.4 C71.29 141.25, 106.32 101.75, 195.13 0.03 M48.97 180.37 C95.57 126.9, 142.91 70.2, 205.76 -0.01 M48.97 180.37 C92.25 129.27, 136.64 79.58, 205.76 -0.01 M59.6 180.33 C114.1 119.19, 166.55 57.96, 216.39 -0.04 M59.6 180.33 C93.15 141.25, 128.3 100.96, 216.39 -0.04 M70.23 180.3 C131.01 112.64, 191.39 41.14, 227.02 -0.08 M70.23 180.3 C117.06 127.33, 164.25 74.13, 227.02 -0.08 M80.86 180.26 C129 122.88, 178.35 68.96, 237.65 -0.11 M80.86 180.26 C129.01 124.9, 177.97 68.42, 237.65 -0.11 M91.49 180.23 C137.88 122.94, 186.08 67.83, 248.28 -0.15 M91.49 180.23 C140.93 124.52, 189.14 68.03, 248.28 -0.15 M102.12 180.19 C158.63 112.12, 215.15 49.5, 258.91 -0.18 M102.12 180.19 C156.69 117.85, 210.43 55.33, 258.91 -0.18 M112.75 180.16 C166.57 119.87, 221.96 55.69, 269.54 -0.22 M112.75 180.16 C171.52 114.64, 228.95 48.33, 269.54 -0.22 M123.38 180.13 C161.22 134.85, 200.75 92.21, 280.17 -0.25 M123.38 180.13 C157.81 141.42, 191.8 102.06, 280.17 -0.25 M134.01 180.09 C179.19 129.27, 223.89 77.39, 290.8 -0.28 M134.01 180.09 C177.6 131.09, 219.29 84.29, 290.8 -0.28 M144.64 180.06 C195.27 122.1, 249.53 61.48, 300.78 0.44 M144.64 180.06 C184.03 133.53, 222.94 87.14, 300.78 0.44 M155.27 180.02 C191 140.91, 223.18 98.89, 311.41 0.4 M155.27 180.02 C205.9 122.05, 257.42 61.82, 311.41 0.4 M165.9 179.99 C228.49 109.46, 291.43 37.11, 322.04 0.37 M165.9 179.99 C204.57 136.13, 242.67 92.6, 322.04 0.37 M176.53 179.95 C235.66 110.73, 291.58 44.47, 331.36 1.84 M176.53 179.95 C212.68 139.31, 248 99.81, 331.36 1.84 M187.16 179.92 C224.81 139.53, 257.85 97.17, 340.02 4.07 M187.16 179.92 C246.29 112.41, 307.04 43.58, 340.02 4.07 M197.79 179.88 C237.16 137.14, 274.35 90.47, 346.06 9.32 M197.79 179.88 C253.68 116.76, 307.74 52.79, 346.06 9.32 M208.42 179.85 C243.62 140.96, 275.69 101.64, 350.13 16.83 M208.42 179.85 C259.86 122.7, 311.18 63.57, 350.13 16.83 M219.05 179.81 C258.01 132.93, 297.78 87.82, 352.88 25.85 M219.05 179.81 C260.91 131.48, 304.46 81.98, 352.88 25.85 M229.68 179.78 C257.21 148.01, 283.02 118.06, 353.67 37.14 M229.68 179.78 C260.12 145.28, 291.12 109.53, 353.67 37.14 M240.31 179.75 C265.49 147.91, 293.41 118.83, 353.81 49.18 M240.31 179.75 C280.63 131.62, 321.55 86.41, 353.81 49.18 M250.94 179.71 C291.54 137.47, 330.5 88.53, 353.94 61.22 M250.94 179.71 C288.54 134.38, 327.33 89.89, 353.94 61.22 M261.57 179.68 C287.5 149.75, 318.5 113.85, 353.42 74.02 M261.57 179.68 C291.84 144.44, 319.94 111.06, 353.42 74.02 M271.54 180.4 C299.33 145.59, 330.61 113.04, 353.55 86.06 M271.54 180.4 C300.66 149.2, 328.38 115.46, 353.55 86.06 M282.17 180.36 C301.5 157, 321.85 137.48, 353.68 98.1 M282.17 180.36 C309.26 147.88, 337.28 117.58, 353.68 98.1 M292.8 180.33 C315.27 154.08, 339.83 125.08, 353.82 110.14 M292.8 180.33 C315.3 156.32, 336.39 129.19, 353.82 110.14 M303.43 180.29 C323.01 157.94, 345.29 134.3, 353.95 122.18 M303.43 180.29 C316.95 164.88, 330.15 150.81, 353.95 122.18 M314.06 180.26 C326.45 165.29, 337.52 149.69, 353.43 134.98 M314.06 180.26 C325.6 166.05, 337.83 152.66, 353.43 134.98 M324.69 180.22 C331.15 173.25, 338.24 163.58, 353.56 147.02 M324.69 180.22 C335.45 166.71, 347.11 153.47, 353.56 147.02 M337.95 177.17 C344.31 169.68, 348.52 164.03, 350.41 162.83 M337.95 177.17 C340.72 174.35, 343.77 170.18, 350.41 162.83" stroke="#ffc9c9" stroke-width="1" fill="none"></path><path d="M32 0 C126.05 2.05, 217.55 0.82, 321 0 M32 0 C90.89 -0.1, 151.29 0.36, 321 0 M321 0 C340.78 1.97, 354.17 8.71, 353 32 M321 0 C342.91 0.63, 351.17 9.49, 353 32 M353 32 C354.28 54.59, 352.91 77.07, 353 148 M353 32 C353.23 59.53, 351.8 86.31, 353 148 M353 148 C353.22 167.52, 342.11 181.72, 321 180 M353 148 C350.89 171.28, 343.38 180.57, 321 180 M321 180 C221.89 179.29, 122.78 180.13, 32 180 M321 180 C239.05 179.03, 155.16 179.97, 32 180 M32 180 C12.58 178.9, 1.12 169.07, 0 148 M32 180 C12.27 182.1, -0.91 168.23, 0 148 M0 148 C0.73 108.72, -0.46 72.03, 0 32 M0 148 C-0.6 108.57, -0.31 70.9, 0 32 M0 32 C0.48 9.79, 10.66 -1.8, 32 0 M0 32 C-0.04 9.53, 9.72 1.78, 32 0" stroke="#1971c2" stroke-width="2" fill="none"></path></g><g transform="translate(264.7186279296875 345.725) rotate(0 130.3173828125 34.5)"><text x="130.3173828125" y="18.400390625" font-family="Helvetica, Segoe UI Emoji" font-size="20px" fill="#1971c2" text-anchor="middle" style="white-space: pre;" direction="ltr" dominant-baseline="alphabetic">Simulation d'attaques réelles </text><text x="130.3173828125" y="41.400390625" font-family="Helvetica, Segoe UI Emoji" font-size="20px" fill="#1971c2" text-anchor="middle" style="white-space: pre;" direction="ltr" dominant-baseline="alphabetic">pour identifier les </text><text x="130.3173828125" y="64.400390625" font-family="Helvetica, Segoe UI Emoji" font-size="20px" fill="#1971c2" text-anchor="middle" style="white-space: pre;" direction="ltr" dominant-baseline="alphabetic">vulnérabilités exploitables.</text></g><g transform="translate(266.734375 258.125) rotate(0 116.515625 9.199999999999989)"><text x="116.515625" y="14.720312499999999" font-family="Helvetica, Segoe UI Emoji" font-size="16px" fill="#1971c2" text-anchor="middle" style="white-space: pre;" direction="ltr" dominant-baseline="alphabetic">Tests de pénétration (pentesting)</text></g></svg>