<svg version="1.1" xmlns="http://www.w3.org/2000/svg" viewBox="0 0 806.25 537.6076923076922" width="806.25" height="537.6076923076922">
  <!-- svg-source:excalidraw -->
  
  <defs>
    <style class="style-fonts">
      @font-face {
        font-family: "Virgil";
        src: url("https://excalidraw.com/Virgil.woff2");
      }
      @font-face {
        font-family: "Cascadia";
        src: url("https://excalidraw.com/Cascadia.woff2");
      }
      @font-face {
        font-family: "Assistant";
        src: url("https://excalidraw.com/Assistant-Regular.woff2");
      }
    </style>
    
  </defs>
  <rect x="0" y="0" width="806.25" height="537.6076923076922" fill="#ffffff"></rect><g stroke-linecap="round" transform="translate(10 40) rotate(0 86.5 59.607692307692304)"><path d="M29.8 0 C54.45 2.56, 83.33 -2.16, 143.2 0 C162.12 -0.06, 170.29 6.48, 173 29.8 C175.87 40.22, 170.05 53.55, 173 89.41 C171.67 106.96, 165.44 120.71, 143.2 119.22 C111.05 118.5, 78.09 121.16, 29.8 119.22 C12 121.14, 0.74 106.54, 0 89.41 C0.61 80.17, 1 61.49, 0 29.8 C-3.2 12.92, 7.92 -3.59, 29.8 0" stroke="none" stroke-width="0" fill="#b2f2bb"></path><path d="M29.8 0 C69.89 -0.16, 113.6 0.59, 143.2 0 M29.8 0 C60.52 -0.47, 91.34 0.13, 143.2 0 M143.2 0 C163.94 -0.77, 173.35 11.67, 173 29.8 M143.2 0 C161.3 -0.05, 173.9 8.08, 173 29.8 M173 29.8 C171.77 44, 173.9 59.36, 173 89.41 M173 29.8 C173.02 45.9, 173.42 60.95, 173 89.41 M173 89.41 C173.27 108.55, 163.79 120.92, 143.2 119.22 M173 89.41 C171.75 111.41, 163.29 120.21, 143.2 119.22 M143.2 119.22 C120.36 118.89, 98.72 119.06, 29.8 119.22 M143.2 119.22 C116.98 117.47, 91.29 118.32, 29.8 119.22 M29.8 119.22 C8.06 119.2, 1.66 107.79, 0 89.41 M29.8 119.22 C10.84 120.15, 0.07 108.48, 0 89.41 M0 89.41 C1.25 76.14, 0.13 64.19, 0 29.8 M0 89.41 C0.04 69.06, -0.88 48.2, 0 29.8 M0 29.8 C-1.19 8.74, 9.57 -1.55, 29.8 0 M0 29.8 C2.07 10.92, 10.43 0.35, 29.8 0" stroke="#e03131" stroke-width="2" fill="none"></path></g><g stroke-linecap="round" transform="translate(214.5 42.838461538461544) rotate(0 86.5 59.60769230769231)"><path d="M29.8 0 C71.57 -0.04, 121.71 -5.33, 143.2 0 C163.4 2.32, 173.78 8.03, 173 29.8 C176.36 50.72, 174.52 75.63, 173 89.41 C171.15 108.65, 165.78 117.8, 143.2 119.22 C120.82 118.18, 93.41 120.91, 29.8 119.22 C9.51 120.68, 0.07 112.11, 0 89.41 C-0.55 73.49, 1.46 54.97, 0 29.8 C-2.95 9.71, 9.75 -1.9, 29.8 0" stroke="none" stroke-width="0" fill="#b2f2bb"></path><path d="M29.8 0 C64.02 -0.31, 96.3 -0.07, 143.2 0 M29.8 0 C57.8 1.04, 83.62 1.03, 143.2 0 M143.2 0 C164.55 -0.95, 174.38 10.51, 173 29.8 M143.2 0 C160.82 -1.64, 174.96 9.35, 173 29.8 M173 29.8 C171.86 50.5, 173.47 66.6, 173 89.41 M173 29.8 C173.04 42.07, 173.38 55.83, 173 89.41 M173 89.41 C174.89 108.41, 163.37 117.29, 143.2 119.22 M173 89.41 C171.44 111.19, 164.82 119.6, 143.2 119.22 M143.2 119.22 C99.9 121, 59.93 118.57, 29.8 119.22 M143.2 119.22 C111.48 121.22, 80.61 120.28, 29.8 119.22 M29.8 119.22 C11.24 118.46, 1.21 110.27, 0 89.41 M29.8 119.22 C9.72 120.04, -0.52 108.71, 0 89.41 M0 89.41 C0.56 67.83, 1.7 48.6, 0 29.8 M0 89.41 C-0.24 74.75, -0.43 60.43, 0 29.8 M0 29.8 C1.59 10, 9.59 -0.76, 29.8 0 M0 29.8 C-0.05 9.67, 7.78 -0.02, 29.8 0" stroke="#e03131" stroke-width="2" fill="none"></path></g><g stroke-linecap="round" transform="translate(420.5 43.78461538461538) rotate(0 86.5 59.60769230769231)"><path d="M29.8 0 C59.22 -1.39, 95.21 -0.06, 143.2 0 C165.31 0.1, 172.32 11, 173 29.8 C174.53 48.58, 170.39 70.74, 173 89.41 C173.47 110.29, 166.41 118.71, 143.2 119.22 C115.85 121.96, 90.25 119.4, 29.8 119.22 C7.07 118.22, 1.17 106.2, 0 89.41 C-1.67 71.69, 3.05 51.72, 0 29.8 C1.84 11.86, 7.1 0.79, 29.8 0" stroke="none" stroke-width="0" fill="#b2f2bb"></path><path d="M29.8 0 C65.58 -1.54, 98.7 1.19, 143.2 0 M29.8 0 C53.18 -1.26, 76.67 0.16, 143.2 0 M143.2 0 C163.67 1.33, 172.86 10.25, 173 29.8 M143.2 0 C165.29 -1.18, 172.59 11.67, 173 29.8 M173 29.8 C173.34 46.79, 171.49 60.96, 173 89.41 M173 29.8 C172.95 49.91, 172.7 68.9, 173 89.41 M173 89.41 C172.72 109.25, 163.41 120.31, 143.2 119.22 M173 89.41 C172.13 107.39, 162.92 119.1, 143.2 119.22 M143.2 119.22 C115.91 117.45, 87.05 119.13, 29.8 119.22 M143.2 119.22 C110.3 117.58, 76.97 118.47, 29.8 119.22 M29.8 119.22 C10.5 121.15, 0.55 110.55, 0 89.41 M29.8 119.22 C10.3 120.77, 0.64 111.15, 0 89.41 M0 89.41 C-0.46 72.17, -1.69 59.23, 0 29.8 M0 89.41 C-0.25 70.63, -0.43 51.52, 0 29.8 M0 29.8 C-1.47 10.72, 8.65 1.6, 29.8 0 M0 29.8 C-1.03 11.15, 10.24 1.44, 29.8 0" stroke="#e03131" stroke-width="2" fill="none"></path></g><g stroke-linecap="round" transform="translate(621.5 43.78461538461538) rotate(0 86.5 59.60769230769231)"><path d="M29.8 0 C55.27 -1.7, 77.19 -1.12, 143.2 0 C160.13 1.99, 176.53 8.98, 173 29.8 C175.42 47.52, 170.54 63.07, 173 89.41 C176.41 110.46, 161.08 119.95, 143.2 119.22 C101.17 121.41, 62.21 116.02, 29.8 119.22 C12.25 118.82, -0.66 107.28, 0 89.41 C0.92 71.07, 1.84 45.57, 0 29.8 C0.13 12.4, 10.51 2.22, 29.8 0" stroke="none" stroke-width="0" fill="#b2f2bb"></path><path d="M29.8 0 C70.62 -0.87, 111.8 -1.37, 143.2 0 M29.8 0 C52.92 -0.07, 76.41 -0.38, 143.2 0 M143.2 0 C162.79 -0.66, 171.79 8.47, 173 29.8 M143.2 0 C163.97 -1.47, 174.84 8.9, 173 29.8 M173 29.8 C172.88 51.81, 173.02 69.93, 173 89.41 M173 29.8 C173.57 45.32, 172.75 61.07, 173 89.41 M173 89.41 C173.72 110.61, 164.34 119.67, 143.2 119.22 M173 89.41 C172.19 107.16, 163.61 119.51, 143.2 119.22 M143.2 119.22 C104.93 119.98, 68.77 119.37, 29.8 119.22 M143.2 119.22 C99.56 119.01, 57.85 118.43, 29.8 119.22 M29.8 119.22 C10.86 117.29, 0.89 107.78, 0 89.41 M29.8 119.22 C11.8 120.5, 2.3 110.46, 0 89.41 M0 89.41 C-1.22 66.98, -1.48 48.77, 0 29.8 M0 89.41 C-0.52 74.46, -0.29 59.24, 0 29.8 M0 29.8 C0.66 8.02, 9.99 0.02, 29.8 0 M0 29.8 C1.62 8.43, 10.11 1.23, 29.8 0" stroke="#e03131" stroke-width="2" fill="none"></path></g><g transform="translate(45.85546875 89) rotate(0 52.14453125 16.099999999999994)"><text x="52.14453125" y="25.760546874999996" font-family="Helvetica, Segoe UI Emoji" font-size="28px" fill="#1e1e1e" text-anchor="middle" style="white-space: pre;" direction="ltr" dominant-baseline="alphabetic">Injection</text></g><g transform="translate(219.64453125 80.9) rotate(0 80.35546875 27.599999999999994)"><text x="80.35546875" y="14.720312499999999" font-family="Helvetica, Segoe UI Emoji" font-size="16px" fill="#1e1e1e" text-anchor="middle" style="white-space: pre;" direction="ltr" dominant-baseline="alphabetic">Violation de la gestion </text><text x="80.35546875" y="33.1203125" font-family="Helvetica, Segoe UI Emoji" font-size="16px" fill="#1e1e1e" text-anchor="middle" style="white-space: pre;" direction="ltr" dominant-baseline="alphabetic">de l'authentification </text><text x="80.35546875" y="51.520312499999996" font-family="Helvetica, Segoe UI Emoji" font-size="16px" fill="#1e1e1e" text-anchor="middle" style="white-space: pre;" direction="ltr" dominant-baseline="alphabetic">et des sessions</text></g><g transform="translate(423.1630859375 83.4) rotate(0 82.8369140625 23)"><text x="82.8369140625" y="18.400390625" font-family="Helvetica, Segoe UI Emoji" font-size="20px" fill="#1e1e1e" text-anchor="middle" style="white-space: pre;" direction="ltr" dominant-baseline="alphabetic">Exposition de </text><text x="82.8369140625" y="41.400390625" font-family="Helvetica, Segoe UI Emoji" font-size="20px" fill="#1e1e1e" text-anchor="middle" style="white-space: pre;" direction="ltr" dominant-baseline="alphabetic">données sensibles</text></g><g transform="translate(646.197265625 82) rotate(0 62.802734375 23)"><text x="62.802734375" y="18.400390625" font-family="Helvetica, Segoe UI Emoji" font-size="20px" fill="#1e1e1e" text-anchor="middle" style="white-space: pre;" direction="ltr" dominant-baseline="alphabetic">XML External </text><text x="62.802734375" y="41.400390625" font-family="Helvetica, Segoe UI Emoji" font-size="20px" fill="#1e1e1e" text-anchor="middle" style="white-space: pre;" direction="ltr" dominant-baseline="alphabetic">Entities (XXE)</text></g><g stroke-linecap="round" transform="translate(11.75 226.5) rotate(0 86.5 59.607692307692304)"><path d="M29.8 0 C69.63 -1.76, 109.49 0.56, 143.2 0 C165.73 -2.9, 171.53 9.65, 173 29.8 C175.87 49.76, 174.31 69.32, 173 89.41 C172.8 109.46, 163.46 116.09, 143.2 119.22 C102.34 121.62, 54.69 119.9, 29.8 119.22 C7.92 121.95, -3.41 111.56, 0 89.41 C-2.21 63.91, -1.08 44.71, 0 29.8 C-0.68 12.32, 7.06 -3.29, 29.8 0" stroke="none" stroke-width="0" fill="#b2f2bb"></path><path d="M29.8 0 C67.69 -0.65, 109.69 -0.61, 143.2 0 M29.8 0 C58.15 1.22, 86.79 0.2, 143.2 0 M143.2 0 C164.99 -1.15, 171.74 8.36, 173 29.8 M143.2 0 C164.91 -1.41, 175.22 8.78, 173 29.8 M173 29.8 C173.15 51.71, 172.44 76.65, 173 89.41 M173 29.8 C172.58 48.3, 172.34 65.02, 173 89.41 M173 89.41 C174.87 111.1, 162.32 117.65, 143.2 119.22 M173 89.41 C174.93 110.73, 160.98 117.3, 143.2 119.22 M143.2 119.22 C107.48 117.9, 75.04 120.82, 29.8 119.22 M143.2 119.22 C113.8 118.7, 83.31 118.94, 29.8 119.22 M29.8 119.22 C9.92 117.58, -0.22 111.04, 0 89.41 M29.8 119.22 C8.37 119.14, 2.16 110.71, 0 89.41 M0 89.41 C0.82 69.4, 0.89 47.62, 0 29.8 M0 89.41 C-0.58 69.95, -1.35 49.48, 0 29.8 M0 29.8 C0.95 11.22, 8.77 1.38, 29.8 0 M0 29.8 C1.99 11.21, 12.04 0.58, 29.8 0" stroke="#e03131" stroke-width="2" fill="none"></path></g><g stroke-linecap="round" transform="translate(216.25 229.33846153846156) rotate(0 86.5 59.607692307692304)"><path d="M29.8 0 C60.64 1.57, 100.78 -1.92, 143.2 0 C161.59 -0.28, 174.74 8.28, 173 29.8 C175.8 41.07, 173.8 56.5, 173 89.41 C173.4 106.16, 165.89 116.08, 143.2 119.22 C100.76 119.65, 61.72 122.73, 29.8 119.22 C6.53 121.49, 3.04 105.8, 0 89.41 C-1.15 75.1, 0.29 60.92, 0 29.8 C-2.88 6.64, 7.66 1.07, 29.8 0" stroke="none" stroke-width="0" fill="#b2f2bb"></path><path d="M29.8 0 C63.8 -0.25, 96.24 1.68, 143.2 0 M29.8 0 C60.59 -1.16, 93.83 -1.68, 143.2 0 M143.2 0 C161.81 -1.58, 174.6 8.7, 173 29.8 M143.2 0 C165.29 -1.16, 174.76 9.34, 173 29.8 M173 29.8 C172.68 50.28, 172.96 66.17, 173 89.41 M173 29.8 C172.43 43.44, 173.81 57.54, 173 89.41 M173 89.41 C172.26 107.71, 164.74 120.48, 143.2 119.22 M173 89.41 C170.92 107.36, 163.17 120.47, 143.2 119.22 M143.2 119.22 C106.79 119.56, 67.93 120.23, 29.8 119.22 M143.2 119.22 C115.18 119.59, 86.67 118.47, 29.8 119.22 M29.8 119.22 C9.71 120.97, -1.36 109.22, 0 89.41 M29.8 119.22 C12.09 120.64, 1.05 108.77, 0 89.41 M0 89.41 C0.55 68.09, 0.33 49.6, 0 29.8 M0 89.41 C-0.8 70.93, 0.53 54.99, 0 29.8 M0 29.8 C-1.17 11.31, 11.67 1.11, 29.8 0 M0 29.8 C2.11 10.51, 11.45 -0.88, 29.8 0" stroke="#e03131" stroke-width="2" fill="none"></path></g><g stroke-linecap="round" transform="translate(422.25 230.2846153846154) rotate(0 86.5 59.607692307692304)"><path d="M29.8 0 C61.01 -3.24, 85.42 -0.61, 143.2 0 C164.8 -1.66, 170.21 13.3, 173 29.8 C173.34 46.55, 173.93 59.8, 173 89.41 C175.82 106.15, 164.88 121.26, 143.2 119.22 C102.84 121.75, 63.11 121.3, 29.8 119.22 C12.98 115.73, -1.47 106.04, 0 89.41 C-0.05 78.19, -2.25 58.9, 0 29.8 C-2.28 11.01, 12.79 0.62, 29.8 0" stroke="none" stroke-width="0" fill="#b2f2bb"></path><path d="M29.8 0 C59.04 1.65, 89.65 -0.67, 143.2 0 M29.8 0 C75.85 -0.52, 119.34 -0.73, 143.2 0 M143.2 0 C164.67 -1.23, 174.93 8.93, 173 29.8 M143.2 0 C164.83 -0.59, 173.26 10.29, 173 29.8 M173 29.8 C172.75 45.33, 171.38 61.88, 173 89.41 M173 29.8 C173.67 54.55, 172.36 76.69, 173 89.41 M173 89.41 C174.68 110.54, 161.25 117.55, 143.2 119.22 M173 89.41 C173.1 110.54, 163.73 117.83, 143.2 119.22 M143.2 119.22 C117.79 121.88, 92.76 121.28, 29.8 119.22 M143.2 119.22 C108.46 118.75, 73.62 120.44, 29.8 119.22 M29.8 119.22 C8.58 119.15, 1.88 110.52, 0 89.41 M29.8 119.22 C10.99 118.7, 1.1 110.07, 0 89.41 M0 89.41 C0.31 71.42, -0.34 49.94, 0 29.8 M0 89.41 C0.98 72.03, -0.07 54.05, 0 29.8 M0 29.8 C1.73 11.05, 11.77 0.5, 29.8 0 M0 29.8 C1.52 9.06, 9.96 -1.08, 29.8 0" stroke="#e03131" stroke-width="2" fill="none"></path></g><g stroke-linecap="round" transform="translate(623.25 230.2846153846154) rotate(0 86.5 59.607692307692304)"><path d="M29.8 0 C64.2 1.36, 103.27 -0.01, 143.2 0 C160.27 3.37, 172.2 11.73, 173 29.8 C173.34 41.26, 175.76 55.83, 173 89.41 C174.81 111.32, 164.44 116.51, 143.2 119.22 C106.85 123.04, 80.36 117.28, 29.8 119.22 C8.46 115.97, -2.58 107.16, 0 89.41 C-2.68 66.36, -2.07 50.98, 0 29.8 C2.86 10.55, 11.61 3.27, 29.8 0" stroke="none" stroke-width="0" fill="#b2f2bb"></path><path d="M29.8 0 C59.75 -1.76, 92.53 -2.22, 143.2 0 M29.8 0 C62.64 -0.14, 97.54 0.03, 143.2 0 M143.2 0 C165 -1.01, 174.53 9.42, 173 29.8 M143.2 0 C163.32 0.35, 172.37 9.46, 173 29.8 M173 29.8 C171.46 53.04, 174.96 76.22, 173 89.41 M173 29.8 C173.19 48.2, 174.4 68.8, 173 89.41 M173 89.41 C171.19 107.61, 163.15 120.31, 143.2 119.22 M173 89.41 C173.66 107.9, 161.18 120.22, 143.2 119.22 M143.2 119.22 C100.91 121.65, 60.79 120.79, 29.8 119.22 M143.2 119.22 C105.61 119.17, 67.56 118.26, 29.8 119.22 M29.8 119.22 C11.81 120.46, 0.91 108.83, 0 89.41 M29.8 119.22 C11.04 120.01, 0.68 110.15, 0 89.41 M0 89.41 C-0.28 73.09, -0.11 55.42, 0 29.8 M0 89.41 C-0.87 77.88, 0.58 65.52, 0 29.8 M0 29.8 C1.83 10.44, 11.26 -0.76, 29.8 0 M0 29.8 C0.03 8.86, 8.82 -2.12, 29.8 0" stroke="#e03131" stroke-width="2" fill="none"></path></g><g transform="translate(34.0791015625 239.5) rotate(0 66.6708984375 48.30000000000001)"><text x="66.6708984375" y="25.760546874999996" font-family="Helvetica, Segoe UI Emoji" font-size="28px" fill="#1e1e1e" text-anchor="middle" style="white-space: pre;" direction="ltr" dominant-baseline="alphabetic">Contrôle </text><text x="66.6708984375" y="57.96054687499999" font-family="Helvetica, Segoe UI Emoji" font-size="28px" fill="#1e1e1e" text-anchor="middle" style="white-space: pre;" direction="ltr" dominant-baseline="alphabetic">d'accès</text><text x="66.6708984375" y="90.160546875" font-family="Helvetica, Segoe UI Emoji" font-size="28px" fill="#1e1e1e" text-anchor="middle" style="white-space: pre;" direction="ltr" dominant-baseline="alphabetic"> insuffisant</text></g><g transform="translate(242.7109375 255.09999999999997) rotate(0 60.0390625 34.5)"><text x="60.0390625" y="18.400390625" font-family="Helvetica, Segoe UI Emoji" font-size="20px" fill="#1e1e1e" text-anchor="middle" style="white-space: pre;" direction="ltr" dominant-baseline="alphabetic">Mauvaise </text><text x="60.0390625" y="41.400390625" font-family="Helvetica, Segoe UI Emoji" font-size="20px" fill="#1e1e1e" text-anchor="middle" style="white-space: pre;" direction="ltr" dominant-baseline="alphabetic">configuration </text><text x="60.0390625" y="64.400390625" font-family="Helvetica, Segoe UI Emoji" font-size="20px" fill="#1e1e1e" text-anchor="middle" style="white-space: pre;" direction="ltr" dominant-baseline="alphabetic">de sécurité</text></g><g transform="translate(439.3955078125 269.9) rotate(0 68.3544921875 23)"><text x="68.3544921875" y="18.400390625" font-family="Helvetica, Segoe UI Emoji" font-size="20px" fill="#1e1e1e" text-anchor="middle" style="white-space: pre;" direction="ltr" dominant-baseline="alphabetic">Cross-Site </text><text x="68.3544921875" y="41.400390625" font-family="Helvetica, Segoe UI Emoji" font-size="20px" fill="#1e1e1e" text-anchor="middle" style="white-space: pre;" direction="ltr" dominant-baseline="alphabetic">Scripting (XSS)</text></g><g transform="translate(643.3857421875 268.5) rotate(0 68.3642578125 23)"><text x="68.3642578125" y="18.400390625" font-family="Helvetica, Segoe UI Emoji" font-size="20px" fill="#1e1e1e" text-anchor="middle" style="white-space: pre;" direction="ltr" dominant-baseline="alphabetic">Désérialisation </text><text x="68.3642578125" y="41.400390625" font-family="Helvetica, Segoe UI Emoji" font-size="20px" fill="#1e1e1e" text-anchor="middle" style="white-space: pre;" direction="ltr" dominant-baseline="alphabetic">non sécurisée</text></g><g stroke-linecap="round" transform="translate(216 408.3923076923076) rotate(0 86.5 59.607692307692304)"><path d="M29.8 0 C57.21 2.29, 87.05 0.61, 143.2 0 C164.62 -0.96, 173.01 12.05, 173 29.8 C171.91 43.47, 170.27 55.7, 173 89.41 C170.42 112.58, 166.58 121.29, 143.2 119.22 C119.4 115.71, 100.74 115.42, 29.8 119.22 C12.17 122.58, 1.81 108.69, 0 89.41 C2.45 71.12, 0.07 57.53, 0 29.8 C-1.25 10.83, 8.27 -1.35, 29.8 0" stroke="none" stroke-width="0" fill="#b2f2bb"></path><path d="M29.8 0 C62.96 0.67, 95.75 -0.57, 143.2 0 M29.8 0 C70.08 -1.33, 110.33 -0.75, 143.2 0 M143.2 0 C162.48 -0.15, 171.13 8.5, 173 29.8 M143.2 0 C164.54 1.63, 173.33 9.31, 173 29.8 M173 29.8 C173.18 53.1, 174.59 75.68, 173 89.41 M173 29.8 C173.51 45.78, 173.19 63.01, 173 89.41 M173 89.41 C173.96 109.83, 162.77 120.59, 143.2 119.22 M173 89.41 C171.76 108.75, 162.57 120.33, 143.2 119.22 M143.2 119.22 C108.58 121.94, 75.98 119.67, 29.8 119.22 M143.2 119.22 C105.87 119.73, 70.17 119.76, 29.8 119.22 M29.8 119.22 C9.17 119.42, -1.24 107.34, 0 89.41 M29.8 119.22 C10.87 118.33, -0.81 108.33, 0 89.41 M0 89.41 C-1.63 74.89, 0.19 57.75, 0 29.8 M0 89.41 C-0.16 67.18, -1.29 44.47, 0 29.8 M0 29.8 C-1.49 9.47, 9.35 -1.6, 29.8 0 M0 29.8 C0.05 10.23, 8.34 0.77, 29.8 0" stroke="#e03131" stroke-width="2" fill="none"></path></g><g stroke-linecap="round" transform="translate(417 408.3923076923076) rotate(0 86.5 59.607692307692304)"><path d="M29.8 0 C68.74 -0.45, 105.59 -2.57, 143.2 0 C163.07 2.11, 171.09 11.21, 173 29.8 C169.46 49.18, 169.98 78.96, 173 89.41 C176.51 111.35, 159.47 119.09, 143.2 119.22 C121.53 116.09, 96.28 121.56, 29.8 119.22 C11.75 118.62, -1.04 112.42, 0 89.41 C0 76.78, -2.25 64.14, 0 29.8 C-1.66 8.59, 7.44 3.1, 29.8 0" stroke="none" stroke-width="0" fill="#b2f2bb"></path><path d="M29.8 0 C56.82 -1.18, 88.14 1.48, 143.2 0 M29.8 0 C74.24 0.61, 119.85 0.17, 143.2 0 M143.2 0 C161.2 -1.44, 174.28 11.35, 173 29.8 M143.2 0 C163.39 -0.62, 174.97 12.09, 173 29.8 M173 29.8 C173.92 52.68, 172.33 75.26, 173 89.41 M173 29.8 C173.71 50.98, 173.87 70.91, 173 89.41 M173 89.41 C172.71 110.65, 161.98 118.75, 143.2 119.22 M173 89.41 C172.51 110.4, 162.99 121.07, 143.2 119.22 M143.2 119.22 C98.21 119.47, 53.53 118.49, 29.8 119.22 M143.2 119.22 C107.05 119.74, 69.13 119.58, 29.8 119.22 M29.8 119.22 C8.69 117.27, 0.81 108.51, 0 89.41 M29.8 119.22 C9.12 118.26, -0.54 108.35, 0 89.41 M0 89.41 C0.51 70.89, 1.95 51.23, 0 29.8 M0 89.41 C-1.02 71.96, -0.91 56.05, 0 29.8 M0 29.8 C-0.59 8.34, 9.98 0.26, 29.8 0 M0 29.8 C-1.59 10.7, 8.66 1.1, 29.8 0" stroke="#e03131" stroke-width="2" fill="none"></path></g><g transform="translate(246.357421875 412.00769230769225) rotate(0 61.142578125 57.49999999999997)"><text x="61.142578125" y="18.400390625" font-family="Helvetica, Segoe UI Emoji" font-size="20px" fill="#1e1e1e" text-anchor="middle" style="white-space: pre;" direction="ltr" dominant-baseline="alphabetic">Utilisation de </text><text x="61.142578125" y="41.400390625" font-family="Helvetica, Segoe UI Emoji" font-size="20px" fill="#1e1e1e" text-anchor="middle" style="white-space: pre;" direction="ltr" dominant-baseline="alphabetic">composants </text><text x="61.142578125" y="64.400390625" font-family="Helvetica, Segoe UI Emoji" font-size="20px" fill="#1e1e1e" text-anchor="middle" style="white-space: pre;" direction="ltr" dominant-baseline="alphabetic">avec des </text><text x="61.142578125" y="87.400390625" font-family="Helvetica, Segoe UI Emoji" font-size="20px" fill="#1e1e1e" text-anchor="middle" style="white-space: pre;" direction="ltr" dominant-baseline="alphabetic">vulnérabilités </text><text x="61.142578125" y="110.400390625" font-family="Helvetica, Segoe UI Emoji" font-size="20px" fill="#1e1e1e" text-anchor="middle" style="white-space: pre;" direction="ltr" dominant-baseline="alphabetic">connues</text></g><g transform="translate(440.017578125 432.6076923076923) rotate(0 64.482421875 34.50000000000003)"><text x="64.482421875" y="18.400390625" font-family="Helvetica, Segoe UI Emoji" font-size="20px" fill="#1e1e1e" text-anchor="middle" style="white-space: pre;" direction="ltr" dominant-baseline="alphabetic">Journalisation </text><text x="64.482421875" y="41.400390625" font-family="Helvetica, Segoe UI Emoji" font-size="20px" fill="#1e1e1e" text-anchor="middle" style="white-space: pre;" direction="ltr" dominant-baseline="alphabetic">et surveillance</text><text x="64.482421875" y="64.400390625" font-family="Helvetica, Segoe UI Emoji" font-size="20px" fill="#1e1e1e" text-anchor="middle" style="white-space: pre;" direction="ltr" dominant-baseline="alphabetic"> insuffisantes</text></g><g stroke-linecap="round" transform="translate(24 14) rotate(0 71.5 25)"><path d="M52.51 0.62 C63.36 -0.8, 79.34 -0.73, 90.99 0.37 C102.65 1.48, 114.19 4.15, 122.42 7.25 C130.65 10.36, 137.22 14.79, 140.38 18.99 C143.53 23.19, 144.54 28.57, 141.37 32.44 C138.19 36.31, 130.09 39.38, 121.34 42.19 C112.58 45.01, 100.24 48.02, 88.82 49.32 C77.4 50.62, 64.02 51.25, 52.82 49.98 C41.62 48.71, 30.2 44.83, 21.65 41.71 C13.09 38.58, 4.55 35.21, 1.48 31.21 C-1.58 27.21, 0.08 21.58, 3.26 17.7 C6.44 13.83, 10.74 10.82, 20.54 7.95 C30.33 5.07, 53.58 1.56, 62.03 0.46 C70.49 -0.64, 71 1, 71.26 1.33 M75.58 -0.59 C86.74 -0.59, 101.33 3.32, 111.2 5.73 C121.07 8.14, 129.75 10.47, 134.8 13.89 C139.84 17.32, 142.28 22.31, 141.48 26.28 C140.68 30.24, 136.42 34.23, 130.02 37.68 C123.62 41.14, 113.74 44.8, 103.1 47 C92.47 49.19, 78.17 51.02, 66.19 50.86 C54.22 50.71, 40.97 48.8, 31.24 46.08 C21.5 43.36, 12.95 38.1, 7.77 34.55 C2.59 31, -0.47 28.54, 0.15 24.77 C0.76 21, 4.86 15.6, 11.48 11.92 C18.11 8.24, 29.13 4.47, 39.89 2.7 C50.64 0.92, 70.05 1.6, 76.01 1.26 C81.98 0.93, 75.87 0.3, 75.69 0.69" stroke="none" stroke-width="0" fill="#b2f2bb"></path><path d="M100.53 2.48 C111.1 3.71, 122.15 6.74, 129.3 10.24 C136.46 13.73, 142.2 19.18, 143.45 23.45 C144.7 27.72, 141.85 32.14, 136.83 35.86 C131.8 39.58, 122.85 43.28, 113.3 45.76 C103.74 48.25, 91.32 50.35, 79.49 50.78 C67.66 51.21, 53.29 50.17, 42.31 48.36 C31.33 46.56, 20.53 43.58, 13.6 39.95 C6.68 36.33, 2.06 30.89, 0.78 26.62 C-0.51 22.35, 1.03 17.95, 5.89 14.31 C10.74 10.67, 20.16 7.08, 29.91 4.76 C39.65 2.45, 51.33 0.72, 64.35 0.44 C77.38 0.15, 99.62 2.26, 108.07 3.04 C116.52 3.83, 115.52 4.86, 115.05 5.16 M97.99 2.48 C108.91 3.98, 121.62 8.02, 129.19 11.01 C136.76 13.99, 142 16.62, 143.42 20.4 C144.85 24.18, 142.66 29.38, 137.74 33.69 C132.82 38.01, 123.41 43.8, 113.93 46.32 C104.45 48.83, 92.58 48.64, 80.86 48.8 C69.13 48.96, 54.46 48.48, 43.6 47.29 C32.73 46.11, 22.75 45.02, 15.68 41.7 C8.61 38.37, 3.07 31.92, 1.18 27.33 C-0.72 22.74, -0.19 17.6, 4.31 14.16 C8.81 10.71, 18.43 9.23, 28.17 6.66 C37.91 4.1, 51.06 -0.43, 62.76 -1.23 C74.45 -2.03, 92.51 1.19, 98.34 1.85 C104.16 2.52, 98.13 2.52, 97.71 2.75" stroke="#f08c00" stroke-width="2" fill="none"></path></g><g transform="translate(52.62448233266184 27.32233047033631) rotate(0 42.8173828125 11.5)"><text x="42.8173828125" y="18.400390625" font-family="Helvetica, Segoe UI Emoji" font-size="20px" fill="#f08c00" text-anchor="middle" style="white-space: pre;" direction="ltr" dominant-baseline="alphabetic">A01:2021</text></g><g stroke-linecap="round" transform="translate(233.5 10) rotate(0 71.5 25)"><path d="M97.64 0.7 C108.58 1.51, 119.33 5.1, 126.72 8.62 C134.11 12.13, 140.15 17.57, 141.97 21.8 C143.78 26.03, 142 30.2, 137.61 34.01 C133.23 37.82, 124.8 42.07, 115.68 44.68 C106.55 47.28, 94.44 49.13, 82.85 49.64 C71.26 50.14, 57.35 49.16, 46.15 47.69 C34.95 46.22, 23.16 43.79, 15.63 40.8 C8.11 37.82, 2.84 33.99, 0.98 29.79 C-0.87 25.59, 0.13 19.53, 4.52 15.62 C8.91 11.71, 17.96 8.94, 27.33 6.33 C36.7 3.71, 47.22 0.41, 60.75 -0.05 C74.27 -0.52, 98.92 2.51, 108.48 3.52 C118.04 4.54, 118.56 5.64, 118.09 6.05 M90.08 2.07 C101.15 2.54, 111.93 3.49, 120.37 5.96 C128.81 8.43, 137.07 12.62, 140.73 16.92 C144.39 21.21, 145.34 27.55, 142.33 31.74 C139.32 35.94, 131.17 39.19, 122.69 42.1 C114.2 45.02, 102.92 48.16, 91.43 49.22 C79.93 50.28, 65.17 49.4, 53.74 48.47 C42.3 47.54, 31.45 46.6, 22.8 43.65 C14.16 40.7, 5.23 34.65, 1.86 30.78 C-1.51 26.91, -0.34 24.11, 2.6 20.42 C5.54 16.74, 11.52 11.75, 19.51 8.69 C27.5 5.63, 38.94 3.45, 50.54 2.06 C62.14 0.68, 82.97 0.5, 89.1 0.4 C95.23 0.29, 87.69 0.75, 87.32 1.43" stroke="none" stroke-width="0" fill="#b2f2bb"></path><path d="M38.43 2.71 C48.06 0.48, 62.8 -0.68, 74.5 -0.62 C86.19 -0.57, 98.71 0.6, 108.58 3.04 C118.46 5.48, 128.16 10.29, 133.75 14.01 C139.34 17.73, 142.43 21.45, 142.12 25.36 C141.8 29.27, 138.04 33.91, 131.85 37.46 C125.66 41.02, 115.31 44.59, 104.96 46.7 C94.6 48.81, 81.56 50.25, 69.71 50.14 C57.87 50.02, 43.95 48.08, 33.89 46.01 C23.84 43.94, 14.9 41.49, 9.39 37.72 C3.88 33.95, 0.56 27.84, 0.83 23.38 C1.09 18.93, 2.56 14.67, 10.98 10.98 C19.4 7.29, 42.02 2.89, 51.36 1.24 C60.69 -0.4, 66.65 0.67, 66.98 1.1 M102.24 1.02 C112.69 2.39, 123.13 6.63, 129.76 10.23 C136.39 13.83, 141.07 18.54, 142.02 22.6 C142.97 26.66, 140.2 30.64, 135.47 34.58 C130.75 38.52, 123.33 43.83, 113.66 46.23 C103.99 48.63, 89.55 48.5, 77.46 48.96 C65.37 49.42, 52.13 50.58, 41.13 48.99 C30.14 47.41, 18.34 43.29, 11.5 39.47 C4.65 35.65, 1.03 30.45, 0.06 26.07 C-0.9 21.69, 0.47 16.73, 5.71 13.2 C10.95 9.67, 21.81 7.15, 31.49 4.9 C41.17 2.65, 52.25 -0.1, 63.81 -0.29 C75.37 -0.49, 94.51 3.14, 100.86 3.72 C107.2 4.31, 102.14 2.89, 101.87 3.21" stroke="#f08c00" stroke-width="2" fill="none"></path></g><g transform="translate(262.12448233266184 23.32233047033631) rotate(0 42.8173828125 11.5)"><text x="42.8173828125" y="18.400390625" font-family="Helvetica, Segoe UI Emoji" font-size="20px" fill="#f08c00" text-anchor="middle" style="white-space: pre;" direction="ltr" dominant-baseline="alphabetic">A02:2021</text></g><g stroke-linecap="round" transform="translate(435.5 10) rotate(0 71.5 25)"><path d="M103.78 2.11 C114.31 3.64, 124.48 8.24, 130.96 11.63 C137.45 15.03, 141.97 18.38, 142.69 22.48 C143.41 26.57, 140.69 32.27, 135.29 36.18 C129.9 40.1, 120.23 43.52, 110.31 45.95 C100.39 48.38, 87.44 50.54, 75.75 50.75 C64.05 50.95, 50.79 49.14, 40.15 47.17 C29.5 45.21, 18.51 42.5, 11.87 38.98 C5.23 35.45, 1 30.37, 0.31 26.02 C-0.39 21.68, 2.4 16.7, 7.7 12.89 C13.01 9.08, 22.11 5.36, 32.13 3.17 C42.14 0.97, 54.62 -0.58, 67.8 -0.28 C80.98 0.02, 102.77 3.81, 111.2 4.97 C119.62 6.12, 118.95 6.27, 118.35 6.67 M54.33 1.55 C64.93 0.01, 78.84 0.02, 90.18 0.77 C101.52 1.51, 113.75 3.26, 122.37 6.01 C131 8.77, 138.71 13.02, 141.91 17.29 C145.11 21.57, 144.89 27.26, 141.58 31.67 C138.27 36.07, 130.53 40.8, 122.05 43.75 C113.57 46.71, 102.2 48.5, 90.7 49.41 C79.2 50.32, 64.62 50.34, 53.04 49.22 C41.46 48.1, 29.86 45.74, 21.21 42.71 C12.55 39.68, 3.99 34.95, 1.09 31.05 C-1.81 27.15, 0.3 23.42, 3.81 19.31 C7.33 15.2, 13.9 9.31, 22.17 6.4 C30.43 3.48, 48.15 2.7, 53.4 1.81 C58.65 0.93, 53.39 0.98, 53.68 1.1" stroke="none" stroke-width="0" fill="#b2f2bb"></path><path d="M68.75 0.06 C79.85 -0.57, 93.8 0.69, 104.35 2.79 C114.9 4.9, 125.75 9.08, 132.07 12.67 C138.39 16.27, 141.93 20.31, 142.27 24.35 C142.61 28.39, 139.47 33.32, 134.12 36.93 C128.77 40.55, 120.26 43.88, 110.17 46.06 C100.08 48.23, 85.59 49.74, 73.57 49.97 C61.55 50.2, 48.44 49.23, 38.06 47.42 C27.67 45.6, 17.62 42.55, 11.25 39.08 C4.88 35.61, 0.46 30.92, -0.17 26.57 C-0.79 22.21, 1.81 16.87, 7.48 12.96 C13.15 9.05, 21.63 5.25, 33.84 3.11 C46.05 0.97, 71.06 0.39, 80.71 0.12 C90.37 -0.15, 91.85 1.2, 91.77 1.49 M62.1 1.04 C73.11 -0.21, 87.38 -0.4, 98.39 0.9 C109.4 2.19, 120.64 5.27, 128.16 8.81 C135.68 12.34, 141.83 17.59, 143.5 22.1 C145.16 26.62, 143.18 32.31, 138.17 35.92 C133.16 39.53, 123.23 41.39, 113.44 43.78 C103.65 46.16, 91.12 49.63, 79.44 50.21 C67.76 50.79, 54.15 48.71, 43.36 47.24 C32.57 45.78, 21.69 44.39, 14.72 41.43 C7.75 38.46, 2.83 33.8, 1.55 29.44 C0.28 25.08, 2.76 19.17, 7.08 15.26 C11.41 11.34, 18.16 8.24, 27.5 5.96 C36.84 3.68, 56.99 2.28, 63.13 1.59 C69.27 0.89, 64.49 1.81, 64.35 1.78" stroke="#f08c00" stroke-width="2" fill="none"></path></g><g transform="translate(464.12448233266196 23.32233047033631) rotate(0 42.8173828125 11.5)"><text x="42.8173828125" y="18.400390625" font-family="Helvetica, Segoe UI Emoji" font-size="20px" fill="#f08c00" text-anchor="middle" style="white-space: pre;" direction="ltr" dominant-baseline="alphabetic">A03:2021</text></g><g stroke-linecap="round" transform="translate(636.5 11) rotate(0 71.5 25)"><path d="M42.66 1.21 C52.88 -0.67, 68.04 -0.58, 79.94 0.13 C91.85 0.84, 104.68 2.9, 114.07 5.45 C123.45 8, 131.39 11.67, 136.27 15.43 C141.15 19.2, 144.64 24.04, 143.35 28.04 C142.05 32.04, 135.57 35.99, 128.5 39.44 C121.44 42.89, 111.68 46.87, 100.95 48.75 C90.22 50.63, 76.14 51.15, 64.12 50.71 C52.1 50.28, 38.55 48.62, 28.82 46.11 C19.08 43.61, 10.5 39.77, 5.73 35.69 C0.95 31.61, -1.14 25.81, 0.18 21.65 C1.49 17.49, 4.24 14.42, 13.63 10.74 C23.01 7.06, 46.71 1.39, 56.47 -0.44 C66.24 -2.27, 71.83 -0.95, 72.22 -0.22 M82.79 1.48 C93.9 1.96, 106.7 3.89, 115.96 6.45 C125.22 9.02, 133.88 13.22, 138.35 16.86 C142.82 20.5, 144.66 24.47, 142.78 28.28 C140.89 32.09, 134.68 36.55, 127.03 39.72 C119.39 42.89, 107.78 45.6, 96.91 47.3 C86.04 49, 73.57 50.2, 61.82 49.9 C50.07 49.6, 35.77 48.31, 26.4 45.5 C17.02 42.69, 9.82 37.31, 5.56 33.02 C1.3 28.73, -0.99 23.53, 0.81 19.78 C2.61 16.02, 8.73 13.43, 16.36 10.49 C23.99 7.55, 35.52 3.9, 46.59 2.13 C57.67 0.37, 77.07 -0.03, 82.82 -0.11 C88.57 -0.19, 81.37 0.95, 81.08 1.65" stroke="none" stroke-width="0" fill="#b2f2bb"></path><path d="M87.44 0.53 C98.82 1.21, 110.97 4.03, 119.54 6.91 C128.11 9.78, 135.24 13.97, 138.86 17.78 C142.48 21.58, 143.8 25.63, 141.27 29.72 C138.74 33.81, 131.67 39.12, 123.69 42.29 C115.71 45.47, 104.68 47.69, 93.39 48.76 C82.09 49.83, 67.8 49.77, 55.93 48.72 C44.05 47.67, 31.02 45.11, 22.14 42.44 C13.25 39.77, 5.87 36.41, 2.62 32.7 C-0.64 28.98, -0.25 24.2, 2.59 20.15 C5.42 16.09, 11.6 11.61, 19.64 8.37 C27.68 5.14, 39.14 1.87, 50.84 0.75 C62.53 -0.36, 82.81 1.52, 89.81 1.69 C96.8 1.86, 93.26 1.61, 92.8 1.76 M82.04 1 C93.49 1.4, 107.41 4.45, 116.85 6.83 C126.29 9.21, 134.25 11.69, 138.67 15.3 C143.09 18.9, 145.42 23.97, 143.38 28.45 C141.34 32.94, 134.03 38.78, 126.44 42.22 C118.84 45.66, 108.95 47.83, 97.82 49.09 C86.7 50.36, 71.85 50.71, 59.7 49.79 C47.55 48.87, 34.02 46.35, 24.94 43.55 C15.86 40.76, 8.99 37, 5.21 33.02 C1.44 29.03, 0.62 23.86, 2.28 19.64 C3.95 15.41, 7.95 10.6, 15.18 7.68 C22.42 4.76, 34.2 3.3, 45.67 2.09 C57.15 0.89, 77.81 0.58, 84.04 0.45 C90.28 0.33, 83.31 1.1, 83.08 1.33" stroke="#f08c00" stroke-width="2" fill="none"></path></g><g transform="translate(665.124482332662 24.32233047033631) rotate(0 42.8173828125 11.5)"><text x="42.8173828125" y="18.400390625" font-family="Helvetica, Segoe UI Emoji" font-size="20px" fill="#f08c00" text-anchor="middle" style="white-space: pre;" direction="ltr" dominant-baseline="alphabetic">A04:2021</text></g><g stroke-linecap="round" transform="translate(31.5 190) rotate(0 71.5 25)"><path d="M41.74 2.55 C51.61 0.56, 65.16 -0.84, 76.94 -0.49 C88.71 -0.14, 102.4 2.05, 112.4 4.65 C122.41 7.24, 131.86 11.28, 136.96 15.08 C142.07 18.88, 144.27 23.55, 143.02 27.44 C141.76 31.34, 136.4 35.09, 129.44 38.44 C122.47 41.78, 111.83 45.65, 101.23 47.52 C90.64 49.38, 77.67 49.95, 65.86 49.62 C54.05 49.29, 40.35 47.83, 30.38 45.55 C20.4 43.28, 10.93 39.75, 6 35.97 C1.07 32.2, -0.39 27.1, 0.82 22.91 C2.03 18.72, 5.53 14.54, 13.25 10.84 C20.97 7.13, 40.21 2.4, 47.13 0.68 C54.06 -1.03, 54.49 0.14, 54.8 0.56 M86.57 1.93 C98.18 2.68, 111.39 4.2, 120.46 6.83 C129.52 9.46, 137.28 13.88, 140.95 17.7 C144.62 21.51, 145.25 25.71, 142.48 29.72 C139.72 33.73, 132.5 38.37, 124.36 41.78 C116.23 45.19, 104.77 49.1, 93.66 50.18 C82.55 51.25, 69.22 49.33, 57.69 48.24 C46.17 47.14, 33.64 46.13, 24.52 43.59 C15.41 41.06, 7.07 37.15, 3.01 33.02 C-1.05 28.88, -2.57 22.67, 0.18 18.76 C2.92 14.86, 11.44 12.62, 19.48 9.6 C27.52 6.58, 37.26 2.02, 48.41 0.63 C59.56 -0.75, 80.03 1.19, 86.38 1.27 C92.73 1.35, 86.8 0.92, 86.5 1.09" stroke="none" stroke-width="0" fill="#b2f2bb"></path><path d="M75.97 -0.09 C87.13 -0.3, 100.88 1.44, 110.72 3.92 C120.56 6.4, 129.65 11.04, 135.02 14.8 C140.4 18.56, 143.55 22.36, 142.97 26.46 C142.39 30.56, 138.32 35.91, 131.54 39.4 C124.76 42.9, 113.27 45.6, 102.3 47.43 C91.34 49.25, 77.38 50.52, 65.74 50.35 C54.09 50.18, 42.11 48.76, 32.42 46.42 C22.73 44.07, 13.02 40.27, 7.6 36.29 C2.18 32.32, -0.95 26.81, -0.1 22.58 C0.75 18.35, 5.87 14.2, 12.71 10.92 C19.54 7.64, 28.54 4.48, 40.89 2.91 C53.25 1.34, 77.67 1.73, 86.81 1.51 C95.96 1.28, 96.24 1.38, 95.77 1.55 M49.68 -0.22 C60.37 -1.58, 76.22 0.33, 87.8 1.38 C99.38 2.44, 110.26 3.58, 119.13 6.1 C128.01 8.63, 137.58 12.28, 141.06 16.54 C144.54 20.8, 142.58 27.19, 140 31.67 C137.42 36.14, 133.67 40.62, 125.57 43.38 C117.47 46.15, 103.05 47.14, 91.39 48.25 C79.73 49.37, 67.12 50.76, 55.61 50.08 C44.11 49.41, 31.16 47.34, 22.35 44.22 C13.53 41.1, 6.41 35.58, 2.75 31.36 C-0.91 27.14, -2.24 22.96, 0.39 18.89 C3.02 14.82, 10.14 9.89, 18.54 6.92 C26.94 3.95, 45.31 1.81, 50.79 1.09 C56.27 0.37, 51.13 2.06, 51.42 2.58" stroke="#f08c00" stroke-width="2" fill="none"></path></g><g transform="translate(60.12448233266184 203.3223304703363) rotate(0 42.8173828125 11.5)"><text x="42.8173828125" y="18.400390625" font-family="Helvetica, Segoe UI Emoji" font-size="20px" fill="#f08c00" text-anchor="middle" style="white-space: pre;" direction="ltr" dominant-baseline="alphabetic">A05:2021</text></g><g stroke-linecap="round" transform="translate(234.5 194) rotate(0 71.5 25)"><path d="M85.43 -0.02 C96.92 0.53, 111.03 3.24, 119.92 6.06 C128.8 8.87, 135.22 12.89, 138.75 16.89 C142.28 20.88, 143.56 25.79, 141.11 30.02 C138.67 34.26, 131.84 39.31, 124.07 42.29 C116.31 45.27, 105.57 46.54, 94.53 47.9 C83.5 49.26, 69.71 51, 57.88 50.46 C46.05 49.93, 32.49 47.49, 23.55 44.69 C14.61 41.88, 7.95 37.84, 4.24 33.64 C0.52 29.44, -0.86 23.77, 1.27 19.49 C3.41 15.21, 9.15 11.12, 17.02 7.96 C24.89 4.8, 36.3 1.67, 48.49 0.55 C60.67 -0.58, 82.72 1.15, 90.14 1.21 C97.55 1.26, 93.42 0.59, 92.97 0.87 M54.95 -0.19 C65.46 -1.83, 80.66 -1.49, 92.23 0 C103.79 1.48, 116.29 5.64, 124.32 8.72 C132.36 11.81, 137.68 14.56, 140.43 18.49 C143.17 22.43, 144.4 28.19, 140.77 32.33 C137.15 36.47, 127.77 40.33, 118.66 43.32 C109.54 46.31, 97.51 49.29, 86.08 50.26 C74.65 51.23, 61.4 50.47, 50.1 49.16 C38.79 47.85, 26.48 45.7, 18.24 42.4 C10 39.09, 3.09 33.47, 0.65 29.36 C-1.79 25.24, -0.31 21.38, 3.59 17.69 C7.5 13.99, 15.06 10.03, 24.07 7.18 C33.09 4.32, 52.33 1.37, 57.69 0.55 C63.05 -0.28, 56.26 1.64, 56.22 2.25" stroke="none" stroke-width="0" fill="#b2f2bb"></path><path d="M88 0.24 C99.22 0.84, 112.05 4.08, 120.8 7.05 C129.55 10.02, 137.16 14.1, 140.5 18.07 C143.84 22.04, 143.61 26.88, 140.83 30.86 C138.05 34.84, 132.01 38.93, 123.82 41.94 C115.62 44.94, 103.09 47.81, 91.67 48.89 C80.26 49.96, 66.95 49.22, 55.33 48.38 C43.72 47.53, 30.84 46.45, 22 43.82 C13.17 41.19, 5.68 36.77, 2.31 32.59 C-1.06 28.41, -1.05 22.94, 1.78 18.75 C4.6 14.56, 11.11 10.38, 19.27 7.47 C27.43 4.56, 38.27 2.35, 50.73 1.27 C63.18 0.18, 86.05 0.66, 94 0.96 C101.96 1.26, 98.92 2.47, 98.48 3.07 M50.74 1.57 C61.71 0.43, 77.91 0.57, 89.66 1.53 C101.42 2.49, 112.8 4.48, 121.29 7.32 C129.78 10.16, 137.35 14.63, 140.6 18.55 C143.85 22.47, 143.82 26.88, 140.81 30.84 C137.81 34.8, 131.08 39.4, 122.58 42.31 C114.07 45.21, 101.37 46.86, 89.77 48.25 C78.18 49.65, 64.11 51.47, 53 50.66 C41.89 49.86, 31.73 46.36, 23.11 43.41 C14.5 40.47, 4.72 36.93, 1.3 33 C-2.13 29.07, -0.57 23.81, 2.57 19.82 C5.71 15.84, 12.04 12.29, 20.16 9.09 C28.28 5.89, 46.05 2.07, 51.28 0.62 C56.52 -0.82, 50.98 -0.1, 51.55 0.44" stroke="#f08c00" stroke-width="2" fill="none"></path></g><g transform="translate(263.12448233266184 207.3223304703363) rotate(0 42.8173828125 11.5)"><text x="42.8173828125" y="18.400390625" font-family="Helvetica, Segoe UI Emoji" font-size="20px" fill="#f08c00" text-anchor="middle" style="white-space: pre;" direction="ltr" dominant-baseline="alphabetic">A06:2021</text></g><g stroke-linecap="round" transform="translate(439.5 201) rotate(0 71.5 25)"><path d="M86.16 1.29 C97.4 1.81, 110.96 4.32, 119.99 7.14 C129.03 9.97, 136.74 14.53, 140.38 18.25 C144.02 21.98, 144.32 25.51, 141.84 29.48 C139.36 33.45, 133.4 38.92, 125.49 42.09 C117.57 45.25, 105.71 47.35, 94.35 48.46 C82.99 49.58, 69.03 49.64, 57.34 48.78 C45.66 47.91, 33.1 46.05, 24.25 43.28 C15.39 40.52, 7.81 36.23, 4.2 32.19 C0.59 28.15, 0.16 23.11, 2.57 19.04 C4.98 14.96, 10.95 10.66, 18.65 7.73 C26.35 4.79, 35.89 2.31, 48.76 1.43 C61.63 0.55, 86.79 2.07, 95.87 2.47 C104.95 2.87, 103.51 3.47, 103.25 3.82 M61.24 -0.96 C72.12 -2.06, 85.76 -0.24, 96.68 1.67 C107.59 3.58, 119.34 7.24, 126.71 10.51 C134.07 13.78, 138.89 17.3, 140.87 21.29 C142.84 25.28, 142.39 30.37, 138.57 34.46 C134.76 38.54, 127.51 43.35, 117.96 45.8 C108.42 48.25, 93.44 48.81, 81.31 49.17 C69.19 49.54, 55.96 49.62, 45.21 48 C34.47 46.39, 24.37 42.78, 16.84 39.48 C9.32 36.18, 2.05 32.22, 0.07 28.22 C-1.9 24.23, 0.74 19.17, 5 15.51 C9.25 11.85, 16.31 8.7, 25.6 6.24 C34.9 3.78, 54.87 1.62, 60.75 0.75 C66.62 -0.11, 60.58 0.52, 60.83 1.05" stroke="none" stroke-width="0" fill="#b2f2bb"></path><path d="M99.46 1.47 C110.42 2.71, 121.66 5.58, 128.86 9.11 C136.05 12.64, 141.23 18.33, 142.63 22.64 C144.03 26.96, 142.09 31.4, 137.26 34.99 C132.43 38.58, 123.2 41.67, 113.66 44.19 C104.12 46.7, 91.73 49.29, 80 50.08 C68.26 50.86, 54.26 50.68, 43.24 48.9 C32.23 47.12, 21.02 42.8, 13.92 39.42 C6.81 36.04, 2.08 32.7, 0.62 28.63 C-0.85 24.55, 0.46 18.85, 5.12 14.97 C9.79 11.09, 18.93 7.84, 28.59 5.32 C38.26 2.8, 50.84 0.45, 63.1 -0.15 C75.35 -0.75, 95.1 1.14, 102.12 1.72 C109.13 2.29, 105.69 2.87, 105.19 3.29 M59.5 -0.78 C70.37 -1.89, 84.21 0.41, 95.43 2.1 C106.66 3.79, 119.31 6.42, 126.87 9.35 C134.42 12.28, 138.99 15.75, 140.76 19.68 C142.53 23.61, 141.5 28.93, 137.48 32.93 C133.45 36.93, 125.28 40.83, 116.62 43.67 C107.97 46.51, 96.9 48.93, 85.56 49.96 C74.22 50.99, 60.14 51.41, 48.59 49.84 C37.04 48.27, 23.95 43.98, 16.26 40.54 C8.58 37.1, 4.53 33.27, 2.48 29.18 C0.44 25.08, 0.08 19.64, 4.01 15.99 C7.94 12.34, 17.02 9.74, 26.05 7.3 C35.09 4.86, 52.55 2.45, 58.24 1.36 C63.92 0.27, 59.92 0.68, 60.18 0.76" stroke="#f08c00" stroke-width="2" fill="none"></path></g><g transform="translate(468.12448233266196 214.3223304703363) rotate(0 42.8173828125 11.499999999999986)"><text x="42.8173828125" y="18.400390625" font-family="Helvetica, Segoe UI Emoji" font-size="20px" fill="#f08c00" text-anchor="middle" style="white-space: pre;" direction="ltr" dominant-baseline="alphabetic">A07:2021</text></g><g stroke-linecap="round" transform="translate(640.5 200) rotate(0 71.5 25)"><path d="M46.53 1.32 C56.6 -0.56, 71.37 -0.66, 83.13 0.08 C94.9 0.81, 107.83 3.13, 117.12 5.73 C126.41 8.33, 134.85 11.87, 138.85 15.7 C142.86 19.52, 143.19 24.53, 141.16 28.67 C139.13 32.81, 134.22 37.23, 126.69 40.54 C119.16 43.85, 107.06 47.08, 95.96 48.52 C84.87 49.96, 71.68 49.91, 60.1 49.19 C48.52 48.47, 35.84 46.8, 26.46 44.19 C17.08 41.59, 7.93 37.51, 3.81 33.55 C-0.32 29.59, -0.46 24.42, 1.72 20.42 C3.89 16.43, 8.6 12.8, 16.84 9.58 C25.07 6.36, 44.55 2.66, 51.12 1.09 C57.7 -0.48, 55.79 -0.37, 56.29 0.16 M68.98 0.45 C80.37 0.19, 96.34 1.66, 106.66 3.4 C116.97 5.13, 124.8 7.47, 130.87 10.85 C136.93 14.24, 142.61 19.53, 143.04 23.71 C143.47 27.89, 139.33 32.02, 133.45 35.93 C127.56 39.84, 117.79 44.59, 107.73 47.16 C97.68 49.72, 84.68 51.5, 73.11 51.31 C61.55 51.13, 48.87 48.15, 38.32 46.03 C27.78 43.91, 16.21 42.19, 9.85 38.61 C3.49 35.03, 0.21 28.71, 0.14 24.53 C0.07 20.36, 3.99 16.89, 9.43 13.55 C14.87 10.21, 22.95 6.91, 32.78 4.51 C42.61 2.11, 62.15 -0.37, 68.44 -0.83 C74.72 -1.29, 70.18 1.04, 70.49 1.76" stroke="none" stroke-width="0" fill="#b2f2bb"></path><path d="M103.86 2.11 C114.48 3.3, 125.16 6.86, 131.76 10.49 C138.36 14.11, 142.9 19.56, 143.47 23.85 C144.03 28.13, 140.79 32.55, 135.16 36.2 C129.54 39.85, 119.58 43.29, 109.72 45.75 C99.86 48.2, 87.81 50.83, 75.98 50.94 C64.16 51.05, 49.41 48.5, 38.78 46.4 C28.15 44.31, 18.53 41.83, 12.22 38.39 C5.9 34.96, 1.64 29.74, 0.9 25.78 C0.16 21.83, 2.41 18.19, 7.77 14.64 C13.13 11.1, 23.24 6.85, 33.06 4.54 C42.89 2.23, 53.06 0.65, 66.72 0.81 C80.37 0.97, 105.5 4.08, 114.98 5.5 C124.45 6.92, 124.39 9.11, 123.55 9.31 M54.81 0.64 C65.79 -0.6, 82.23 -0.77, 93.86 0.51 C105.48 1.8, 116.54 5.13, 124.54 8.37 C132.54 11.62, 139.19 15.8, 141.83 19.98 C144.48 24.16, 143.94 29.48, 140.41 33.45 C136.88 37.43, 129.51 41.12, 120.67 43.83 C111.83 46.53, 99.15 49.04, 87.37 49.68 C75.58 50.32, 61.35 49.01, 49.97 47.66 C38.59 46.32, 26.98 44.51, 19.09 41.61 C11.19 38.7, 5.41 34.1, 2.58 30.22 C-0.25 26.34, -1.24 22.24, 2.13 18.32 C5.49 14.39, 13.65 9.75, 22.76 6.68 C31.88 3.61, 51.2 0.65, 56.8 -0.11 C62.4 -0.88, 56.29 1.61, 56.37 2.1" stroke="#f08c00" stroke-width="2" fill="none"></path></g><g transform="translate(669.124482332662 213.3223304703363) rotate(0 42.8173828125 11.499999999999986)"><text x="42.8173828125" y="18.400390625" font-family="Helvetica, Segoe UI Emoji" font-size="20px" fill="#f08c00" text-anchor="middle" style="white-space: pre;" direction="ltr" dominant-baseline="alphabetic">A08:2021</text></g><g stroke-linecap="round" transform="translate(234.5 362) rotate(0 71.5 25)"><path d="M104.4 2.76 C115.24 4.05, 126.03 7.56, 132.53 10.93 C139.03 14.3, 143.07 18.63, 143.41 22.98 C143.76 27.32, 139.95 33.14, 134.61 37 C129.26 40.86, 121.25 44.09, 111.33 46.14 C101.41 48.19, 87.13 49.05, 75.09 49.3 C63.04 49.55, 49.78 49.41, 39.06 47.64 C28.34 45.87, 17.17 42.3, 10.79 38.68 C4.4 35.06, 1.28 30.04, 0.74 25.93 C0.2 21.83, 2.28 17.74, 7.55 14.06 C12.82 10.37, 22.18 6, 32.35 3.82 C42.53 1.65, 55.06 0.76, 68.58 1 C82.09 1.25, 105.1 4.38, 113.47 5.3 C121.84 6.22, 119.62 6.25, 118.79 6.54 M67.82 0.64 C79.03 0.32, 94.7 1.24, 105.62 3.1 C116.54 4.95, 127.24 8.48, 133.34 11.76 C139.44 15.05, 142.11 18.85, 142.24 22.82 C142.38 26.8, 139.53 31.7, 134.14 35.6 C128.75 39.49, 119.84 43.76, 109.91 46.19 C99.97 48.62, 86.51 49.87, 74.55 50.19 C62.6 50.52, 48.91 50.08, 38.16 48.14 C27.41 46.2, 16.6 42.32, 10.05 38.55 C3.51 34.77, -0.68 29.62, -1.11 25.48 C-1.53 21.35, 1.52 17.37, 7.51 13.73 C13.49 10.09, 24.37 5.76, 34.81 3.66 C45.25 1.56, 64.65 1.55, 70.15 1.11 C75.66 0.68, 67.94 1.07, 67.84 1.06" stroke="none" stroke-width="0" fill="#b2f2bb"></path><path d="M85.21 -0.26 C96.56 0.21, 109.41 3.96, 118.33 6.91 C127.24 9.86, 134.74 13.61, 138.71 17.43 C142.67 21.25, 144.35 25.81, 142.13 29.82 C139.92 33.83, 133.48 38.21, 125.41 41.5 C117.33 44.8, 104.83 48.26, 93.69 49.58 C82.55 50.91, 70.01 50.53, 58.55 49.47 C47.08 48.41, 34.06 45.89, 24.91 43.21 C15.75 40.53, 7.39 37.17, 3.61 33.37 C-0.17 29.58, 0.04 24.7, 2.22 20.45 C4.4 16.2, 8.99 11.13, 16.69 7.89 C24.4 4.65, 36.1 2.24, 48.43 0.99 C60.77 -0.26, 82.79 0.09, 90.7 0.38 C98.61 0.68, 96.15 2.1, 95.87 2.75 M87.82 0.73 C99.04 1.55, 110.14 4.94, 118.87 7.58 C127.59 10.21, 136.34 12.83, 140.19 16.51 C144.05 20.19, 144.84 25.23, 141.99 29.66 C139.14 34.09, 131.12 39.78, 123.1 43.11 C115.08 46.44, 104.96 48.44, 93.87 49.65 C82.78 50.85, 68.24 51.14, 56.59 50.34 C44.94 49.54, 32.7 47.69, 23.98 44.82 C15.26 41.95, 8.01 37.26, 4.27 33.11 C0.54 28.97, -1.08 24.34, 1.55 19.96 C4.19 15.58, 11.69 9.86, 20.07 6.83 C28.46 3.8, 40.76 3.02, 51.87 1.78 C62.98 0.54, 80.86 -0.4, 86.73 -0.61 C92.6 -0.82, 87.11 -0.13, 87.09 0.51" stroke="#f08c00" stroke-width="2" fill="none"></path></g><g transform="translate(263.12448233266184 375.3223304703363) rotate(0 42.8173828125 11.5)"><text x="42.8173828125" y="18.400390625" font-family="Helvetica, Segoe UI Emoji" font-size="20px" fill="#f08c00" text-anchor="middle" style="white-space: pre;" direction="ltr" dominant-baseline="alphabetic">A09:2021</text></g><g stroke-linecap="round" transform="translate(427.5 375) rotate(0 78 26.5)"><path d="M75.34 0.98 C86.64 0.24, 100.77 0.2, 111.69 1.93 C122.61 3.65, 133.61 7.91, 140.86 11.32 C148.11 14.74, 153.19 18.48, 155.21 22.41 C157.22 26.34, 156.69 31.17, 152.93 34.88 C149.17 38.59, 141.63 41.84, 132.66 44.66 C123.68 47.48, 110.9 50.54, 99.08 51.78 C87.27 53.02, 73.41 52.92, 61.75 52.1 C50.09 51.28, 38.34 49.23, 29.14 46.85 C19.94 44.47, 11.39 41.58, 6.56 37.82 C1.73 34.07, -0.68 28.66, 0.16 24.31 C0.99 19.96, 5.03 15.08, 11.57 11.72 C18.12 8.35, 26.6 5.9, 39.44 4.12 C52.27 2.33, 78.56 1.33, 88.6 0.98 C98.64 0.64, 99.86 1.68, 99.68 2.04 M53.16 2.8 C63.69 1.1, 79.12 -1.15, 90.86 -0.85 C102.59 -0.55, 114.25 1.82, 123.58 4.6 C132.9 7.38, 141.63 12.06, 146.82 15.83 C152 19.59, 154.83 23.17, 154.67 27.19 C154.52 31.2, 151.66 36.53, 145.89 39.92 C140.12 43.31, 130.23 45.16, 120.06 47.53 C109.89 49.9, 96.96 53.61, 84.89 54.14 C72.82 54.67, 58.78 52.25, 47.64 50.72 C36.5 49.2, 25.63 48.27, 18.06 45 C10.49 41.72, 4.78 35.45, 2.24 31.09 C-0.31 26.72, -0.14 22.52, 2.78 18.82 C5.7 15.12, 11.47 11.88, 19.76 8.87 C28.05 5.87, 46.84 1.8, 52.5 0.81 C58.16 -0.18, 53.14 2.39, 53.72 2.92" stroke="none" stroke-width="0" fill="#b2f2bb"></path><path d="M65.42 0.52 C76.61 -0.61, 92.15 -0.66, 103.5 0.54 C114.84 1.74, 125.11 4.72, 133.5 7.73 C141.88 10.74, 150.22 14.69, 153.82 18.6 C157.43 22.52, 157.59 27.15, 155.15 31.21 C152.72 35.27, 146.95 39.75, 139.21 42.95 C131.47 46.14, 119.86 48.69, 108.69 50.37 C97.52 52.04, 84.22 53.24, 72.2 53 C60.18 52.76, 46.82 51.08, 36.55 48.93 C26.28 46.77, 16.82 43.7, 10.59 40.08 C4.37 36.46, -0.32 31.45, -0.8 27.21 C-1.29 22.96, 2.37 18.37, 7.7 14.61 C13.02 10.85, 20.27 7.09, 31.16 4.66 C42.04 2.23, 64.62 0.62, 73.02 0.04 C81.42 -0.53, 81.43 0.78, 81.55 1.2 M79.77 0.94 C91.39 0.82, 104.35 2.31, 114.97 4.26 C125.59 6.21, 136.53 9.66, 143.49 12.65 C150.45 15.63, 155.55 18.11, 156.73 22.18 C157.9 26.26, 155.38 33.1, 150.54 37.08 C145.7 41.06, 136.72 43.45, 127.71 46.03 C118.69 48.62, 107.89 51.7, 96.45 52.61 C85.02 53.51, 70.66 52.5, 59.09 51.48 C47.52 50.45, 35.94 49.17, 27.04 46.47 C18.14 43.77, 10.13 39.05, 5.7 35.28 C1.26 31.51, -1.01 27.96, 0.43 23.83 C1.87 19.7, 7.11 13.95, 14.33 10.5 C21.54 7.05, 33.16 4.85, 43.72 3.12 C54.28 1.39, 71.62 0.78, 77.71 0.11 C83.8 -0.56, 80.25 -1.5, 80.27 -0.9" stroke="#f08c00" stroke-width="2" fill="none"></path></g><g transform="translate(456.9667648174493 389.7616702985565) rotate(0 48.37890625 11.5)"><text x="48.37890625" y="18.400390625" font-family="Helvetica, Segoe UI Emoji" font-size="20px" fill="#f08c00" text-anchor="middle" style="white-space: pre;" direction="ltr" dominant-baseline="alphabetic">A010:2021</text></g></svg>